<svg id="artwork" xmlns="http://www.w3.org/2000/svg" xmlns:xlink="http://www.w3.org/1999/xlink" viewBox="0 0 64.08 64.08"><defs><style>.cls-1{fill:url(#linear-gradient);}.cls-2{fill:#fff;}.cls-3{fill:#0e4377;}</style><linearGradient id="linear-gradient" x1="25.21" y1="57.37" x2="34.21" y2="6.34" gradientUnits="userSpaceOnUse"><stop offset="0" stop-color="#13599e"/><stop offset="0.08" stop-color="#1561ad"/><stop offset="0.22" stop-color="#176dc1"/><stop offset="0.36" stop-color="#1974ce"/><stop offset="0.5" stop-color="#1976d2"/><stop offset="0.64" stop-color="#1974ce"/><stop offset="0.78" stop-color="#176dc1"/><stop offset="0.92" stop-color="#1561ad"/><stop offset="1" stop-color="#13599e"/></linearGradient></defs><path class="cls-1" d="M39.7,57.07h0c-3.19-15.43,9.17-26.58,11.2-28.91,2.25-2.58,1.71-6.83,1.65-7.29h0v-.05c.36-2.27-2.17-6.93-2.17-6.93,1.42-2.39-.59-5.22-2.68-5.11a2.73,2.73,0,0,0-2.57,1.82,43.59,43.59,0,0,0-6.82,4,10.33,10.33,0,0,1-10.42,1.46c-3.46-1.28-7.52,2.57-7.52,2.57L15,24.35a3.35,3.35,0,0,0-1.92-.49c-3,.21-5.2,5-4.81,10.69A16.16,16.16,0,0,0,9,38.36s-.06-.1-.08-.15c1.05,3.82,3.25,6.44,5.6,6.28,3-.21,5.2-5,4.81-10.69,0-.54-.1-1.07-.17-1.59h0v0a23.48,23.48,0,0,1,2.22,5.92c1.2,4.86-1.6,11.5-5.25,15.74a32,32,0,0,0,23.42,3.35l.16-.12Z"/><path class="cls-2" d="M39.7,57.07h0l-.16.12Z"/><path class="cls-3" d="M17.5,27.09a13.87,13.87,0,0,1,.68,1.45A6.66,6.66,0,0,1,17.5,27.09Zm1.83,6.71c0-.54-.1-1.07-.17-1.59-.14,5.08-3.05,9-5.86,9.23-1.65.12-3.23-1.15-4.38-3.23,1.05,3.82,3.25,6.44,5.6,6.28C17.56,44.28,19.72,39.49,19.33,33.8ZM29,22.44l2-1.89s.54-.44.21-.83a3.07,3.07,0,0,0-2.78-1.31C27.88,19.61,29,22.44,29,22.44Zm3.61,13,4.85.27A36.35,36.35,0,0,0,33.59,44l3.25-.71c-.68,6.56,2.86,13.76,2.86,13.76-3.19-15.43,9.17-26.58,11.2-28.91,2.38-2.73,1.64-7.34,1.64-7.34S48.81,29.29,32.59,35.41Z"/></svg>