<svg id="artwork" xmlns="http://www.w3.org/2000/svg" xmlns:xlink="http://www.w3.org/1999/xlink" viewBox="0 0 70.92 72.11"><defs><style>.cls-1{fill:url(#radial-gradient);}.cls-2{fill:#1976d2;}.cls-3{fill:#0e4377;}</style><radialGradient id="radial-gradient" cx="38.88" cy="31.59" r="31.82" gradientUnits="userSpaceOnUse"><stop offset="0" stop-color="#1976d2"/><stop offset="0.51" stop-color="#1975d0"/><stop offset="0.7" stop-color="#1871c9"/><stop offset="0.83" stop-color="#176bbe"/><stop offset="0.93" stop-color="#1561ad"/><stop offset="1" stop-color="#13599e"/></radialGradient></defs><path class="cls-1" d="M38.88,0A32,32,0,0,0,23,59.84C26.6,55.6,29.4,49,28.2,44.1A23.1,23.1,0,0,0,26,38.18v0h0q.12.78.18,1.59c.38,5.69-1.77,10.48-4.82,10.69-2.35.16-4.54-2.46-5.6-6.28l.09.15a15.67,15.67,0,0,1-.7-3.81c-.39-5.7,1.76-10.48,4.81-10.69a3.37,3.37,0,0,1,1.92.49l5.32-5.69s4.06-3.85,7.53-2.57a10.33,10.33,0,0,0,10.42-1.46,43.27,43.27,0,0,1,6.81-4,2.73,2.73,0,0,1,2.58-1.82c2.08-.11,4.1,2.72,2.67,5.11,0,0,2.54,4.66,2.18,6.93v.05h0c.07.46.61,4.71-1.64,7.29-2,2.33-14.4,13.48-11.2,28.91h0l-.16.12a32.66,32.66,0,0,0,4.4-1.4,10.42,10.42,0,0,1,10.27-8.62h0a11.52,11.52,0,0,1,1.76.16A32,32,0,0,0,38.88,0Z"/><path class="cls-2" d="M67.39,58a8.48,8.48,0,0,0-14.3,8.57A37.1,37.1,0,0,1,3.48,22.61a1.12,1.12,0,0,0-.8-1.37A1.13,1.13,0,0,0,1.3,22,39.35,39.35,0,0,0,32,70.74a40.17,40.17,0,0,0,7.46.71,38.79,38.79,0,0,0,14.7-2.9c.18.24.36.48.56.71a8.49,8.49,0,0,0,12,.7,8.49,8.49,0,0,0,.7-12ZM66.1,67.39a5.92,5.92,0,0,1-.87.94,6.21,6.21,0,0,1-.89.66l-.09.05a6,6,0,0,1-.92.45l-.14.05a6.24,6.24,0,0,1-.94.26l-.16,0a6.35,6.35,0,0,1-1,.08h-.24l-.35,0-.28,0-.34,0-.28-.06a2.14,2.14,0,0,1-.34-.09L59,69.58l-.33-.13-.26-.1-.33-.17-.24-.13-.33-.21-.21-.14L57,68.42l-.17-.14c-.16-.15-.32-.31-.47-.48a6.31,6.31,0,0,1-1.52-5.15c0-.2.08-.4.13-.6a6.27,6.27,0,0,1,1.92-3.14h0a6.21,6.21,0,0,1,.89-.66l.08,0a6.63,6.63,0,0,1,.93-.45l.13,0a6.71,6.71,0,0,1,1-.26l.16,0a6.35,6.35,0,0,1,1-.08h.24l.35,0,.28,0,.34,0,.28.06a2.14,2.14,0,0,1,.34.09l.27.08.33.12.26.11.33.17.24.13a3.53,3.53,0,0,1,.32.21l.22.14.34.28.17.14c.16.15.32.31.47.48a6.28,6.28,0,0,1,.34,8Z"/><path class="cls-2" d="M58.76,64.46a3.24,3.24,0,0,1,2.29-5.52,3.23,3.23,0,0,1,2.28,5.52l-1.06,1.07h-.34v-4a.64.64,0,0,1-.19-.13h0a.68.68,0,0,1-.2-.49.64.64,0,0,1,.2-.48h0a.64.64,0,0,1,.48-.2.68.68,0,0,1,.49.2h0a.68.68,0,0,1,.2.48.72.72,0,0,1-.2.49.69.69,0,0,1-.2.13v2.87l.41-.41a2.65,2.65,0,1,0-3.74,0l.4.41v-.58a.8.8,0,0,1-.19-.13h0a.72.72,0,0,1-.2-.49.68.68,0,0,1,.2-.48h0a.68.68,0,0,1,.49-.2.64.64,0,0,1,.48.2h0a.64.64,0,0,1,.2.48.68.68,0,0,1-.2.49.64.64,0,0,1-.19.13v1.66h-.34l-1.07-1.07Zm3.61-3.65h0a.19.19,0,0,0-.15-.06.2.2,0,0,0-.15.06A.21.21,0,0,0,62,61a.24.24,0,0,0,.07.16h0a.22.22,0,0,0,.3,0,.24.24,0,0,0,.07-.16.21.21,0,0,0-.07-.15ZM60,63.1h0a.2.2,0,0,0-.15-.06.23.23,0,0,0-.16.06.25.25,0,0,0-.06.15.28.28,0,0,0,.06.16h0a.28.28,0,0,0,.16.06.25.25,0,0,0,.15-.06.23.23,0,0,0,.06-.16A.2.2,0,0,0,60,63.1Zm1-1.68a.68.68,0,0,1,.48.2h0a.69.69,0,0,1,.21.49.65.65,0,0,1-.21.48.67.67,0,0,1-.19.14v2.8h-.58v-2.8a.67.67,0,0,1-.19-.14h0a.65.65,0,0,1-.21-.48.69.69,0,0,1,.21-.49h0A.68.68,0,0,1,61.05,61.42Zm.15.53h0a.25.25,0,0,0-.15-.06.23.23,0,0,0-.15.06.24.24,0,0,0-.07.16.21.21,0,0,0,.07.15h0a.2.2,0,0,0,.15.07.24.24,0,0,0,.22-.22A.2.2,0,0,0,61.2,62Z"/><path class="cls-2" d="M59.79,65.91h2.52a.3.3,0,0,1,.3.3h0a.3.3,0,0,1-.3.3H59.79a.3.3,0,0,1-.3-.3h0A.3.3,0,0,1,59.79,65.91Z"/><path class="cls-2" d="M60,66.8h2.17a.29.29,0,0,1,.27.3h0a.29.29,0,0,1-.27.3H60a.29.29,0,0,1-.26-.3h0A.29.29,0,0,1,60,66.8Z"/><path class="cls-2" d="M60.35,67.71h1.4a.71.71,0,0,1-1.4,0Z"/><path class="cls-3" d="M24.33,33.09A13.89,13.89,0,0,1,25,34.54,7.24,7.24,0,0,1,24.33,33.09Zm1.84,6.71Q26.11,39,26,38.21c-.14,5.08-3,9-5.85,9.23-1.66.12-3.23-1.15-4.39-3.23,1.06,3.82,3.25,6.44,5.6,6.28C24.4,50.28,26.55,45.49,26.17,39.8Zm9.65-11.36,2-1.89s.54-.44.21-.83a3.05,3.05,0,0,0-2.77-1.31C34.72,25.61,35.82,28.44,35.82,28.44Zm3.6,13,4.86.27A35.82,35.82,0,0,0,40.43,50l3.25-.71c-.68,6.56,2.86,13.76,2.86,13.76-3.2-15.43,9.17-26.58,11.2-28.91,2.38-2.73,1.64-7.34,1.64-7.34S55.64,35.29,39.42,41.41Z"/></svg>