<?xml version="1.0" encoding="UTF-8"?>
<svg width="1200pt" height="1200pt" version="1.1" viewBox="0 0 1200 1200" xmlns="http://www.w3.org/2000/svg">
 <path d="m736.14 575.65c27.336 0 48.758-17.363 48.758-39.551s-21.406-39.562-48.758-39.562c-27.348 0-48.758 17.375-48.758 39.562s21.41 39.551 48.758 39.551zm0-55.117c14.594 0 24.758 8.207 24.758 15.562 0 7.3555-10.164 15.551-24.758 15.551s-24.758-8.1953-24.758-15.551c0-7.3555 10.164-15.562 24.758-15.562zm376.68-120.46c0-58.883-23.258-100.01-56.566-100.01-0.12109 0-0.22656 0.035157-0.34766 0.035157-0.10938 0-579.04 16.391-579.04 16.391-5.7969-11.258-17.941-17.914-28.223-19.246l-8.9023-1.9453c12.348-63.949 35.855-121.89 43.285-136.86 3-6.0352 5.2188-12.434 3.7305-19.02-1.4883-6.5742-5.6875-12.227-11.543-15.562l-96.059-54.648c-6.5742-3.7422-14.496-4.1641-21.422-1.1641-6.9258 3.0117-12.035 9.0977-13.789 16.441-26.426 110.51-31.766 176.55-32.52 207.17-13.379 5.8555-25.68 16.379-27.758 31.441-14.051 2.293-32.723 8.9414-32.723 25.031v55.906c0 15.707 18.312 23.281 32.953 25.871 2.125 15.238 30.336 91.727 31.883 98.578l-219.53 174.47c-5.7344 4.5469-9.0703 11.473-9.0703 18.781v98.629c0 6.3828 2.543 12.504 7.0664 17.004l67.453 67.164c9.3711 9.3242 24.492 9.3477 33.84 0.023438 16.246-16.152 47.508-12.012 69.73 9.1914 0.96094 0.92578 2.9883 3.1445 5.2578 5.7227v80.746c0 6.2383 2.4258 12.227 6.7578 16.703l75.254 77.641c4.7148 4.8594 10.969 7.2969 17.242 7.2969 5.9141 0 11.844-2.1836 16.488-6.5625l52.895-50.016v64.656c0 4.7891 10.402 12 12 12 3.0117 0 5.9883-1.1406 8.2578-3.3008l43.836-41.664c2.3867-2.2578 3.7422-5.3984 3.7422-8.6992v-83.051l18.551-17.531v61.285c0 4.7891 17.988 10.859 20.258 8.6992l43.855-41.68c2.3867-2.2578 3.7422-5.3984 3.7422-8.6992v-83.773l18.551-17.543v61.992c0 4.7891 17.988 10.859 20.258 8.6992l43.836-41.652c2.3867-2.2578 3.7422-5.3984 3.7422-8.6992v-84.504l18.551-17.543v62.723c0 4.7891 17.988 10.859 20.258 8.6992l43.836-41.664c2.3867-2.2578 3.7422-5.3984 3.7422-8.6992v-85.211l18.551-17.543v63.445c0 4.7891 17.988 10.859 20.258 8.6992l43.836-41.664c2.3867-2.2578 3.7422-5.3984 3.7422-8.6992v-92.52c2.8438-1.0938 25.477-23.605 25.559-23.688 0.67188-0.66016 7.2734-6.5273 7.2734-16.859 0-0.10938 0.035156-0.21484 0.035156-0.33594 0 0-0.3125-99.012-0.32422-99.898-0.10938-7.668-12.348-17.965-12.348-17.965s185.75 6.7695 186.86 6.6719c0.25391-0.035156 0.52734-0.023437 0.76953-0.058593 31.062-3.2461 52.422-43.242 52.422-99.633zm-837.88-49.484c1.7148-0.99609 4.8125-2.0625 8.293-2.9023v57.406c-3.5039-0.98438-6.6367-2.1953-8.293-3.2891zm764.5 49.484c0-23.867 4.8242-41.184 10.055-51.805l3.5273-0.097657c4.5859 5.5781 11.809 24.348 11.809 51.91 0 27.492-7.1875 46.223-11.773 51.852l-3.6016-0.13281c-5.2188-10.648-10.016-27.93-10.016-51.727zm-16.285-51.059c-5.0898 15.047-7.7148 33.07-7.7148 51.059 0 17.844 2.5938 35.734 7.5977 50.711 0 0-578.61-9.1562-579.18-9.1094-4.668-8.6289-4.2344-76.812 0.50391-86.387 6.9805 5.5703 578.79-6.2734 578.79-6.2734zm-228.56 295.21-5.9141-3.7695 26.473-24.73 5.9141 3.7695zm-441.36-317.88c6.5156-1.4648 2.4961-73.262 30.238-199.48l48.277 27.469c-15.168 35.531-34.727 98.867-43.262 155.94-1.8711 12.492 6.2539 24.289 18.602 27l17.363 3.793c-7.9688 14.184-9.6719 93.156-5.125 104.54-21.383 5.7734-25.488 15.301-27.574 20.172-10.246 23.953 8.1484 175.66 11.316 233.27-12.254-43.5-40.68-181.12-45.59-204.71-1.2734-6.1797-4.8594-11.375-9.7578-14.785-5.8203-11.34-15.672-46.391-16.465-54.938-0.007812 0.011719-19.254-89.004 21.977-98.281zm28.395 414.2-73.871-16.848-23.398-31.547c-1.957-2.6523-5.7109-3.2148-8.3867-1.2461-2.6641 1.9688-3.2266 5.7344-1.2461 8.3867l9.2031 12.406-55.285 5.7227c-3.2891 0.33594-5.6875 3.2773-5.3398 6.5898 0.3125 3.0859 2.9141 5.375 5.9531 5.375 0.21484 0 61.598-6.6953 62.41-7.2617l7.7891 10.5c0.85156 1.1523 2.0898 1.957 3.4805 2.2695l85.535 19.512c5.3867 10.262 10.934 19.309 16.598 26.699 0.22656 0.30078 0.53906 0.51562 0.78125 0.80469l-9.0234 20.207c-0.50391-0.14453-0.99609-0.3125-1.5469-0.3125l-45.996-0.058594h-0.011719c-3.3008 0-6 2.6875-6 5.9883 0 3.3125 2.6875 6.0117 5.9883 6.0117l42.348 0.058594-9.8047 21.949c-0.60156 1.332-0.69531 2.8438-0.25391 4.2461l13.5 42.949c0.79297 2.5547 3.168 4.1992 5.7227 4.1992 0.60156 0 1.1992-0.097656 1.8008-0.27734 3.1562-0.98438 4.9062-4.3555 3.9102-7.5234l-12.805-40.766 22.188-49.691c2.6523 0.97266 11.832 2.543 17.426-0.19141 6.3242-3.0859 11.258-8.0156 13.453-14.34l49.895 7.8594c0.3125 0.046876 0.63672 0.070313 0.94922 0.070313 2.8906 0 5.4492-2.1133 5.9141-5.0625 0.51562-3.2773-1.7266-6.3477-4.9922-6.8633l-50.734-7.9922c-0.49219-3.8164-0.99609-7.7773-1.4883-11.734l20.195-32.258 113.54-58.992c2.293-1.1992 3.5742-3.7305 3.1562-6.2773l-4.1992-25.883h46.285c3.3125 0 6-2.6875 6-6s-2.6875-6-6-6h-48c-0.070313 0-0.14453 0.035156-0.21484 0.046875l-5.8672-36.145c-0.51562-3.2773-3.6953-5.543-6.875-4.957-3.2656 0.52734-5.4961 3.6133-4.957 6.875l11.293 69.707-111.14 57.758c-0.95703 0.46484-15.5 23.145-15.5 23.145-10.355-89.172-18.551-203.05-10.234-240.13 5.8438-1.1992 11.172-0.66016 23.004-2.543 5.0898-0.81641 18.191-8.832 20.09-10.848l296.36 11.23 59.426 35.676-462.36 437.21-52.066-55.32c-0.058594-0.40625-0.13281-0.80469-0.20312-1.1992 12.672-22.836 17.102-78.684-28.402-117.12-36.047-30.469-80.41-36.289-110.21-15.863l-41.648-41.469 190.45-151.36c12.848 50.027 31.641 114.11 53.41 160.63zm-99.648 73.957c4.4023 4.7773 7.9062 9.6719 10.68 14.543v45.203c-3.4805-2.9414-7.0078-5.7461-10.68-8.2188zm19.68 64.297v-23.594c0.37109 2.4375 0.63672 4.7891 0.76953 6.9844 0.38281 6.1797-0.015625 11.785-0.76953 16.609zm-48.359-85.465v58.559c-3.5391-1.1523-7.0938-2.0742-10.668-2.8438v-60.145c3.5625 1.2148 7.1133 2.6641 10.668 4.4297zm-62.664 1.3555c1.1992-0.96094 2.3633-2.0039 3.6602-2.8203v58.969c-1.2617 0.40625-2.4258 1.043-3.6602 1.5zm12.648-7.1133c3.3945-1.1758 6.9609-1.9922 10.68-2.3984v62.016c-3.625 0.30078-7.1523 0.85156-10.68 1.5703zm-68.102 22.809v-47.809l31.453 31.32v47.809zm87.781 36.363v-61.727c3.5039 0.16797 7.0547 0.64844 10.68 1.4141v61.223c-3.5781-0.44531-7.1406-0.86328-10.68-0.91016zm39.336 8.6875v-57.18c3.625 2.3047 7.1758 4.9688 10.68 7.8477v54.395c-3.5039-1.9336-7.0703-3.5391-10.68-5.0625zm56.23 135.05v-48.191l39.254 41.711v46.98zm63.254 42.984v-49.066l455.65-430.86v47.914l-17.258-10.98c-4.5977-2.9297-10.633-2.375-14.629 1.3555l-44.594 41.652c-2.7227 2.5312-4.1055 6.1797-3.7578 9.875 0.34766 3.6953 2.375 7.0195 5.5195 9.0117l22.02 14.004v2.7227l-22.43 21.121c-0.57422-0.5625-28.523-18.781-28.523-18.781-4.5859-2.9141-10.633-2.375-14.629 1.3555l-44.594 41.664c-2.7227 2.5312-4.1055 6.1797-3.7578 9.875 0.34766 3.6953 2.375 7.0195 5.5195 9.0117l22.02 14.004v3.2891l-22.094 20.891c-0.67188-0.69531-28.859-19.117-28.859-19.117-4.5977-2.9297-10.621-2.375-14.629 1.3555l-44.594 41.664c-2.7227 2.5312-4.1055 6.1797-3.7578 9.875s2.375 7.0195 5.5195 9.0117l22.02 14.004v4.8594c-0.16797 0.14453-0.38281 0.17969-0.55078 0.33594l-21.023 19.5c-0.78125-0.92578-29.375-19.645-29.375-19.645-4.5977-2.9141-10.633-2.375-14.629 1.3555l-44.594 41.652c-2.7227 2.5312-4.1055 6.1797-3.7578 9.875 0.34766 3.6953 2.375 7.0195 5.5195 9.0117l22.02 14.004v5.0039c-0.19141 0.15625-0.43359 0.21484-0.625 0.38281l-20.723 19.559c-0.81641-1.0312-29.617-19.883-29.617-19.883-4.5859-2.9297-10.621-2.375-14.629 1.3555l-44.594 41.652c-2.7109 2.5312-4.1055 6.1797-3.7578 9.875 0.34766 3.6953 2.375 7.0195 5.5078 9.0117l15.527 9.8633zm326.42-308.27-5.9141-3.7695 26.473-24.73 5.9141 3.7578zm-259.18 242.89-5.9297-3.7578 26.484-24.742 5.9141 3.7695zm33.984 95.016-19.836 18.852v-90.973l19.836-18.852zm52.402-175.98-5.9141-3.7695 26.473-24.73 5.9141 3.7695zm33.984 95.016-19.836 18.852v-90.973l19.836-18.852zm52.406-175.98-5.9141-3.7695 26.473-24.73 5.9141 3.7578zm33.984 95.016-19.836 18.852v-90.973l19.836-18.852zm86.398-80.977-19.836 18.852v-90.973l19.836-18.852zm86.387-80.965-19.836 18.852v-90.973l19.836-18.852z"/>
</svg>
