<?xml version="1.0" encoding="UTF-8"?>
<svg width="1200pt" height="1200pt" version="1.1" viewBox="0 0 1200 1200" xmlns="http://www.w3.org/2000/svg">
 <g>
  <path d="m1106.2 187.5h-1012.5c-4.9727 0-9.7422 1.9766-13.258 5.4922-3.5156 3.5156-5.4922 8.2852-5.4922 13.258v787.5c0 4.9727 1.9766 9.7422 5.4922 13.258 3.5156 3.5156 8.2852 5.4922 13.258 5.4922h1012.5c4.9727 0 9.7422-1.9766 13.258-5.4922 3.5156-3.5156 5.4922-8.2852 5.4922-13.258v-787.5c0-4.9727-1.9766-9.7422-5.4922-13.258-3.5156-3.5156-8.2852-5.4922-13.258-5.4922zm-18.75 150h-675v-112.5h675zm-975-112.5h262.5v112.5h-262.5zm975 750h-975v-600h975z"/>
  <path d="m168.75 262.5c-4.9727 0-9.7422 1.9766-13.258 5.4922-3.5156 3.5156-5.4922 8.2852-5.4922 13.258s1.9766 9.7422 5.4922 13.258c3.5156 3.5156 8.2852 5.4922 13.258 5.4922s9.7422-1.9766 13.258-5.4922c3.5156-3.5156 5.4922-8.2852 5.4922-13.258s-1.9766-9.7422-5.4922-13.258c-3.5156-3.5156-8.2852-5.4922-13.258-5.4922z"/>
  <path d="m243.75 262.5c-4.9727 0-9.7422 1.9766-13.258 5.4922-3.5156 3.5156-5.4922 8.2852-5.4922 13.258s1.9766 9.7422 5.4922 13.258c3.5156 3.5156 8.2852 5.4922 13.258 5.4922s9.7422-1.9766 13.258-5.4922c3.5156-3.5156 5.4922-8.2852 5.4922-13.258s-1.9766-9.7422-5.4922-13.258c-3.5156-3.5156-8.2852-5.4922-13.258-5.4922z"/>
  <path d="m318.75 262.5c-4.9727 0-9.7422 1.9766-13.258 5.4922-3.5156 3.5156-5.4922 8.2852-5.4922 13.258s1.9766 9.7422 5.4922 13.258c3.5156 3.5156 8.2852 5.4922 13.258 5.4922s9.7422-1.9766 13.258-5.4922c3.5156-3.5156 5.4922-8.2852 5.4922-13.258s-1.9766-9.7422-5.4922-13.258c-3.5156-3.5156-8.2852-5.4922-13.258-5.4922z"/>
  <path d="m506.25 300h487.5c6.6992 0 12.887-3.5742 16.238-9.375 3.3477-5.8008 3.3477-12.949 0-18.75-3.3516-5.8008-9.5391-9.375-16.238-9.375h-487.5c-6.6992 0-12.887 3.5742-16.238 9.375-3.3477 5.8008-3.3477 12.949 0 18.75 3.3516 5.8008 9.5391 9.375 16.238 9.375z"/>
  <path d="m300 581.25v-56.25c0-9.9453 3.9492-19.484 10.984-26.516 7.0312-7.0352 16.57-10.984 26.516-10.984h18.75c6.6992 0 12.887-3.5742 16.238-9.375 3.3477-5.8008 3.3477-12.949 0-18.75-3.3516-5.8008-9.5391-9.375-16.238-9.375h-18.75c-19.891 0-38.969 7.9023-53.031 21.969-14.066 14.062-21.969 33.141-21.969 53.031v56.25c0 19.891-7.9023 38.969-21.969 53.031-14.062 14.066-33.141 21.969-53.031 21.969-6.6992 0-12.887 3.5742-16.238 9.375-3.3477 5.8008-3.3477 12.949 0 18.75 3.3516 5.8008 9.5391 9.375 16.238 9.375 19.891 0 38.969 7.9023 53.031 21.969 14.066 14.062 21.969 33.141 21.969 53.031v56.25c0 19.891 7.9023 38.969 21.969 53.031 14.062 14.066 33.141 21.969 53.031 21.969h18.75c6.6992 0 12.887-3.5742 16.238-9.375 3.3477-5.8008 3.3477-12.949 0-18.75-3.3516-5.8008-9.5391-9.375-16.238-9.375h-18.75c-9.9453 0-19.484-3.9492-26.516-10.984-7.0352-7.0312-10.984-16.57-10.984-26.516v-56.25c-0.027344-37.73-18.969-72.934-50.438-93.75 31.469-20.816 50.41-56.02 50.438-93.75z"/>
  <path d="m900 768.75v56.25c0 9.9453-3.9492 19.484-10.984 26.516-7.0312 7.0352-16.57 10.984-26.516 10.984h-18.75c-6.6992 0-12.887 3.5742-16.238 9.375-3.3477 5.8008-3.3477 12.949 0 18.75 3.3516 5.8008 9.5391 9.375 16.238 9.375h18.75c19.891 0 38.969-7.9023 53.031-21.969 14.066-14.062 21.969-33.141 21.969-53.031v-56.25c0-19.891 7.9023-38.969 21.969-53.031 14.062-14.066 33.141-21.969 53.031-21.969 6.6992 0 12.887-3.5742 16.238-9.375 3.3477-5.8008 3.3477-12.949 0-18.75-3.3516-5.8008-9.5391-9.375-16.238-9.375-19.891 0-38.969-7.9023-53.031-21.969-14.066-14.062-21.969-33.141-21.969-53.031v-56.25c0-19.891-7.9023-38.969-21.969-53.031-14.062-14.066-33.141-21.969-53.031-21.969h-18.75c-6.6992 0-12.887 3.5742-16.238 9.375-3.3477 5.8008-3.3477 12.949 0 18.75 3.3516 5.8008 9.5391 9.375 16.238 9.375h18.75c9.9453 0 19.484 3.9492 26.516 10.984 7.0352 7.0312 10.984 16.57 10.984 26.516v56.25c0.027344 37.73 18.969 72.934 50.438 93.75-31.469 20.816-50.41 56.02-50.438 93.75z"/>
  <path d="m404.06 747.94c4.4297 2.2227 9.5586 2.6055 14.266 1.0586s8.6133-4.8906 10.859-9.3086l15.375-30.562 24.188-8.0625v30.188c0.050781 8.3086 0.86328 16.594 2.4375 24.75l-29.625 14.812c-4.4062 2.1953-7.7734 6.0312-9.375 10.688l-18.75 56.25c-2.1445 6.3633-0.73047 13.387 3.7109 18.426 4.4375 5.0391 11.23 7.3242 17.812 6 6.582-1.3242 11.957-6.0625 14.102-12.426l16.312-48.938 18.75-9.1875c14.852 28.547 39.672 50.645 69.746 62.094 30.074 11.445 63.309 11.445 93.383 0 30.074-11.449 54.895-33.547 69.746-62.094l18.75 9.1875 16.312 48.938c1.5898 4.7227 4.9922 8.6211 9.4609 10.84 4.4648 2.2148 9.6289 2.5625 14.352 0.97266s8.6211-4.9922 10.84-9.4609c2.2148-4.4648 2.5625-9.6289 0.97266-14.352l-18.75-56.25c-1.6016-4.6562-4.9688-8.4922-9.375-10.688l-29.625-14.812c1.1953-8.1914 1.6367-16.477 1.3125-24.75v-30.188l24.188 8.0625 15.375 30.562c2.0039 4.8125 5.918 8.5703 10.809 10.379s10.309 1.4961 14.961-0.85547c4.6523-2.3516 8.1133-6.5312 9.5586-11.539 1.4414-5.0117 0.73438-10.395-1.9531-14.859l-18.75-37.5c-2.1953-4.4062-6.0312-7.7734-10.688-9.375l-43.5-14.438v-24-6.75l27.938-14.062c2.9531-1.6602 5.3984-4.0859 7.082-7.0234 1.6836-2.9375 2.543-6.2773 2.4805-9.6641v-56.25c0-6.6992-3.5742-12.887-9.375-16.238-5.8008-3.3477-12.949-3.3477-18.75 0-5.8008 3.3516-9.375 9.5391-9.375 16.238v44.625l-13.312 6.75c-10.242-14.836-25.484-25.484-42.938-30v-21.375c-0.007812-14.547-5.6562-28.527-15.75-39l13.688-27.562c2.4492-5.8828 1.7461-12.605-1.8711-17.852-3.6172-5.2461-9.6484-8.293-16.02-8.0977-6.3672 0.19922-12.199 3.6133-15.484 9.0742l-14.062 27.188c-2.2461-0.18359-4.5039-0.18359-6.75 0h-37.5c-2.2461-0.18359-4.5039-0.18359-6.75 0l-14.062-27.938c-3.2852-5.4609-9.1172-8.875-15.484-9.0742-6.3711-0.19531-12.402 2.8516-16.02 8.0977-3.6172 5.2461-4.3203 11.969-1.8711 17.852l13.688 27.562c-10.277 10.66-15.938 24.945-15.75 39.75v21.375c-17.453 4.5156-32.695 15.164-42.938 30l-13.312-6.75v-44.625c0-6.6992-3.5742-12.887-9.375-16.238-5.8008-3.3477-12.949-3.3477-18.75 0-5.8008 3.3516-9.375 9.5391-9.375 16.238v56.25c0.011719 3.4609 0.98047 6.8555 2.8008 9.8008 1.8203 2.9453 4.418 5.3281 7.5117 6.8867l27.938 14.062v6.75 24l-43.5 14.438c-4.6562 1.6016-8.4922 4.9688-10.688 9.375l-18.75 37.5c-2.2812 4.3359-2.7734 9.3945-1.3711 14.09 1.4023 4.6992 4.5859 8.6562 8.8711 11.035zm252.19-147.94c9.9453 0 19.484 3.9492 26.516 10.984 7.0352 7.0312 10.984 16.57 10.984 26.516v93.75c0.003906 21.613-7.457 42.562-21.125 59.305-13.668 16.742-32.699 28.246-53.875 32.57v-223.12zm-93.75-56.25c0-4.9727 1.9766-9.7422 5.4922-13.258 3.5156-3.5156 8.2852-5.4922 13.258-5.4922h37.5c4.9727 0 9.7422 1.9766 13.258 5.4922 3.5156 3.5156 5.4922 8.2852 5.4922 13.258v18.75h-75zm-56.25 93.75c0-9.9453 3.9492-19.484 10.984-26.516 7.0312-7.0352 16.57-10.984 26.516-10.984h37.5v223.12c-21.176-4.3242-40.207-15.828-53.875-32.57-13.668-16.742-21.129-37.691-21.125-59.305z"/>
 </g>
</svg>
