<?xml version="1.0" encoding="UTF-8"?>
<svg width="1200pt" height="1200pt" version="1.1" viewBox="0 0 1200 1200" xmlns="http://www.w3.org/2000/svg">
 <g>
  <path d="m352.87 523.32h-296.33v-296.33h296.33zm-272.33-24h248.33v-248.33h-248.33z"/>
  <path d="m352.87 835.27h-296.33v-296.33h296.33zm-272.33-24h248.33v-248.33h-248.33z"/>
  <path d="m352.87 1147.2h-296.33v-296.34h296.33zm-272.33-24h248.33v-248.34h-248.33z"/>
  <path d="m664.81 835.27h-296.34v-296.33h296.34zm-272.34-24h248.34v-248.33h-248.34z"/>
  <path d="m664.81 1147.2h-296.34v-296.34h296.34zm-272.34-24h248.34v-248.34h-248.34z"/>
  <path d="m976.75 1147.2h-296.32v-296.34h296.32zm-272.32-24h248.32v-248.34h-248.32z"/>
  <path d="m526.56 495.48-116.88-272.3 272.29-116.89 116.89 272.3zm-85.355-259.71 97.945 228.19 228.19-97.957-97.957-228.19z"/>
  <path d="m1027 820.5-278.98-99.949 99.961-278.98 278.96 99.961zm-248.29-114.46 233.79 83.773 83.773-233.79-233.77-83.762z"/>
  <path d="m850.23 388.77-42.777-293.23 293.26-42.758 42.758 293.23zm-15.562-272.94 35.832 245.73 245.75-35.832-35.844-245.73z"/>
 </g>
</svg>
