<?xml version="1.0" encoding="UTF-8"?>
<svg width="1200pt" height="1200pt" version="1.1" viewBox="0 0 1200 1200" xmlns="http://www.w3.org/2000/svg">
 <path d="m553.14 647.24 73.391 37.391 75.789-75.789-37.391-73.391c14.273-24.379 25.012-50.273 32.086-77.559l78.316-25.516v-107.12l-78.316-25.391c-7.0742-27.156-17.938-53.18-32.086-77.559l37.391-73.391-75.789-75.789-73.391 37.391c-24.379-14.273-50.398-25.012-77.559-32.086l-25.387-78.438h-107.12l-25.516 78.316c-27.16 7.1992-53.18 17.938-77.559 32.211l-73.391-37.391-75.789 75.789 37.391 73.391c-14.273 24.379-25.012 50.273-32.211 77.559l-78.316 25.391v107.24l78.316 25.516c7.0742 27.156 17.938 53.18 32.211 77.559l-37.391 73.391 75.789 75.789 73.391-37.52c24.379 14.273 50.273 25.012 77.559 32.086l25.516 78.316h107.12l25.516-78.316c27.156-7.0742 53.176-17.812 77.43-32.086zm-106.61 0.50391-23.621 72.504h-52.672l-23.621-72.504-10.359-2.3984c-30.316-6.8203-59.117-18.695-85.391-35.367l-8.9688-5.6836-67.957 34.609-37.262-37.262 34.609-67.957-5.6836-8.9688c-16.672-26.398-28.547-55.074-35.367-85.391l-2.3984-10.359-72.504-23.621v-52.672l72.504-23.621 2.3984-10.359c6.8203-30.316 18.695-59.117 35.367-85.391l5.6836-8.9688-34.609-67.957 37.262-37.262 67.957 34.609 8.9688-5.6836c26.398-16.672 55.074-28.547 85.391-35.367l10.359-2.3984 23.621-72.504h52.672l23.621 72.504 10.359 2.3984c30.316 6.8203 59.117 18.695 85.391 35.367l8.9688 5.6836 67.957-34.609 37.262 37.262-34.609 67.957 5.6836 8.9688c16.672 26.398 28.547 55.074 35.367 85.391l2.3984 10.359 72.504 23.621v52.672l-72.504 23.621-2.3984 10.359c-6.8203 30.316-18.695 59.117-35.367 85.391l-5.6836 8.9688 34.609 67.957-37.262 37.262-67.957-34.609-8.9688 5.6836c-26.398 16.672-55.074 28.547-85.391 35.496zm163.58-268.8c0-117.73-95.746-213.47-213.47-213.47-117.73 0-213.47 95.746-213.47 213.47 0 117.73 95.746 213.47 213.47 213.47 117.73 0 213.47-95.75 213.47-213.47zm-213.47 175.96c-97.012 0-175.96-78.949-175.96-175.96 0-97.012 78.949-175.96 175.96-175.96 97.008-0.003907 175.96 78.816 175.96 175.96 0 97.008-78.949 175.96-175.96 175.96zm553.77 270.06 29.809-51.285-55.957-62.527-54.316 24c-15.535-9.9805-32.086-17.938-49.516-23.875l-15.156-57.348-83.746-4.6719-21.473 55.328c-17.938 3.9141-35.367 9.9805-51.914 18.191l-51.285-29.809-62.527 55.957 24 54.316c-9.9805 15.535-17.938 32.086-23.875 49.516l-57.348 15.156-4.6719 83.746 55.328 21.473c3.9141 17.938 9.9805 35.367 18.191 51.914l-29.809 51.285 55.957 62.527 54.316-24c15.535 9.9805 32.086 17.938 49.516 23.875l15.156 57.348 83.746 4.6719 21.473-55.328c17.938-3.9141 35.367-9.9805 51.914-18.191l51.41 29.809 62.527-55.957-24-54.316c9.9805-15.535 17.938-32.086 23.875-49.516l57.348-15.156 4.6719-83.746-55.328-21.473c-4.043-18.062-10.105-35.367-18.316-51.914zm32.969 127.7-51.41 13.641-2.9062 10.23c-5.8086 20.59-15.156 39.914-27.535 57.348l-6.1914 8.7148 21.473 48.633-21.852 19.578-45.98-26.777-9.3477 5.1797c-18.82 10.484-39.031 17.559-60 21.094l-10.484 1.7695-19.199 49.516-29.305-1.6406-13.641-51.41-10.23-2.9062c-20.59-5.8086-39.914-15.156-57.348-27.535l-8.7148-6.1914-48.633 21.473-19.578-21.852 26.777-45.98-5.1797-9.3477c-10.484-18.695-17.559-38.906-21.094-60l-1.7695-10.484-49.516-19.199 1.6406-29.305 51.41-13.641 2.9062-10.23c5.8086-20.59 15.156-39.914 27.535-57.348l6.1914-8.7148-21.473-48.633 21.852-19.578 45.98 26.777 9.0977-5.1797c18.695-10.484 38.906-17.559 60-21.094l10.484-1.7695 19.199-49.516 29.305 1.6406 13.641 51.41 10.23 2.9062c20.59 5.8086 39.914 15.156 57.348 27.535l8.7148 6.1914 48.633-21.473 19.578 21.852-26.777 45.98 5.4336 9.3477c10.484 18.695 17.559 38.906 21.094 60l1.7695 10.484 49.516 19.199zm-226.48-184.04c-41.809-2.3984-81.98 11.746-113.18 39.664-31.199 27.914-49.641 66.316-51.914 108.12-2.2734 41.809 11.746 81.98 39.664 113.18 27.914 31.199 66.316 49.641 108.12 51.914 2.9062 0.125 5.8086 0.25391 8.7148 0.25391 82.484 0 151.71-64.672 156.38-148.04 4.8008-86.273-61.516-160.42-147.79-165.09zm110.4 162.95c-3.6641 65.559-60 116.09-125.56 112.42-31.832-1.7695-61.012-15.789-82.23-39.535-21.223-23.746-31.957-54.316-30.191-86.02 1.7695-31.707 15.789-61.012 39.535-82.23 21.98-19.707 50.02-30.316 79.328-30.316 2.2734 0 4.4219 0 6.6953 0.125 65.559 3.6602 115.96 59.996 112.42 125.55zm311.87-388.93 3.7891-69.602-42.441-16.422c-2.7773-12.125-6.9492-24-12.379-35.242l22.863-39.285-46.484-51.914-41.559 18.316c-10.609-6.5703-21.852-12-33.727-16.168l-11.621-43.957-69.602-3.7891-16.422 42.441c-12.125 2.7773-24 6.9492-35.242 12.379l-39.285-22.863-51.914 46.484 18.441 41.559c-6.5703 10.609-12 21.852-16.168 33.727l-43.957 11.621-3.7891 69.602 42.441 16.422c2.7773 12.125 6.9492 24 12.379 35.242l-22.863 39.285 46.484 51.914 41.559-18.316c10.609 6.5703 21.852 12 33.727 16.168l11.621 43.957 69.602 3.7891 16.422-42.441c12.125-2.7773 24-6.9492 35.242-12.379l39.285 22.863 51.914-46.484-18.316-41.559c6.5703-10.609 12-21.852 16.168-33.727zm-73.766-19.324-2.9062 10.23c-4.293 14.906-10.988 28.926-19.957 41.559l-6.1914 8.7148 15.789 35.875-11.367 10.105-33.852-19.707-9.3477 5.1797c-13.641 7.5781-28.293 12.758-43.578 15.285l-10.484 1.7695-14.148 36.504-15.156-0.88281-9.9805-37.895-10.23-2.9062c-14.906-4.293-28.926-10.988-41.559-19.957l-8.7148-6.1914-35.875 15.789-10.105-11.367 19.707-33.852-5.1797-9.3477c-7.5781-13.641-12.758-28.293-15.285-43.578l-1.7695-10.484-36.504-14.148 0.88281-15.156 37.895-9.9805 2.9062-10.23c4.293-14.906 10.988-28.926 19.957-41.559l6.1914-8.7148-15.789-35.875 11.367-10.23 33.852 19.707 9.3477-5.1797c13.641-7.5781 28.293-12.758 43.578-15.285l10.484-1.7695 14.148-36.504 15.156 0.88281 9.9805 37.895 10.23 2.9062c14.906 4.168 28.926 10.988 41.559 19.957l8.7148 6.1914 35.875-15.789 10.23 11.367-19.707 33.852 5.1797 9.3477c7.5781 13.641 12.758 28.293 15.285 43.578l1.7695 10.484 36.504 14.148-0.88281 15.285zm-129.6-109.39c-21.98-1.2617-43.074 6.1914-59.496 20.844s-26.02 34.863-27.285 56.844c-2.5273 45.348 32.336 84.254 77.684 86.777 1.5156 0.125 3.1562 0.125 4.6719 0.125 20.211 0 39.535-7.3281 54.82-20.969 16.422-14.652 26.02-34.863 27.285-56.844 2.5312-45.348-32.332-84.25-77.68-86.777zm25.391 115.7c-8.9688 7.957-20.336 12-32.336 11.367-24.633-1.3906-43.707-22.609-42.316-47.242 0.63281-12 5.9375-22.988 14.906-30.949 8.3359-7.4531 18.82-11.367 29.809-11.367 0.88281 0 1.6406 0 2.5273 0.125 12 0.63281 22.988 5.9375 30.949 14.906 7.957 8.9688 12 20.465 11.367 32.336-0.75781 11.754-6.0664 22.742-14.906 30.824z"/>
</svg>
