<?xml version="1.0" encoding="UTF-8"?>
<svg width="1200pt" height="1200pt" version="1.1" viewBox="0 0 1200 1200" xmlns="http://www.w3.org/2000/svg">
 <path d="m984 549h-177.65c0.085938-2.4258 0.21484-4.8359 0.21484-7.2852-0.023437-83.258-50.281-154.81-122.21-185.81l-0.14453-0.058594-9.6602-3.9961c-30.445-10.906-52.297-40.031-52.273-74.258v-70.344c31.754-8.0391 55.273-36.695 55.285-70.957-0.011718-40.488-32.797-73.273-73.285-73.285-40.488 0.011719-73.273 32.797-73.285 73.285 0.011718 34.262 23.531 62.914 55.285 70.957v70.344c0.023438 49.512 31.344 91.691 75.289 107.8l8.6172 3.6133c59.062 25.547 100.39 84.277 100.37 152.71 0 2.4727-0.3125 4.8477-0.42188 7.2852h-331.77c-0.10938-2.4375-0.35938-4.8242-0.35938-7.2852v-65.746l58.355 41.688c8.1016 5.7734 19.332 3.8984 25.117-4.1875 5.7734-8.0898 3.8984-19.332-4.1875-25.117l-115.29-82.332v135.7c0 2.4609 0.27734 4.8477 0.35938 7.2852h-186.36c-26.398 0-48 21.602-48 48v492c0 26.398 21.602 48 48 48h768c26.398 0 48-21.602 48-48v-492c0-26.398-21.602-48-48-48zm-417-412.71c0.035156-20.594 16.703-37.246 37.285-37.285 20.594 0.035156 37.246 16.691 37.285 37.285-0.035156 20.594-16.691 37.246-37.285 37.273-20.594-0.027344-37.25-16.684-37.285-37.273zm429 952.71c0 0.38281-0.19141 0.73047-0.23828 1.1055l-189.77-234.43c-6.2539-7.7266-17.594-8.9141-25.32-2.6641-7.7266 6.2539-8.9141 17.594-2.6641 25.32l180.25 222.67h-716.52l180.25-222.67c6.2539-7.7266 5.0625-19.055-2.6758-25.32-7.7266-6.2539-19.055-5.0625-25.309 2.6641l-189.77 234.43c-0.046875-0.375-0.23828-0.72266-0.23828-1.1055v-462.9l347.45 284.44c14.016 11.398 31.402 16.586 48.551 16.609 17.148-0.023438 34.535-5.207 48.539-16.598l347.46-284.22zm-589.25-504c19.836 90.898 100.68 158.99 197.53 159 52.078 0.011719 99.707-19.754 135.53-52.117 7.3789-6.6602 7.957-18.047 1.2969-25.43-6.6719-7.3789-18.047-7.957-25.414-1.2969-29.543 26.652-68.496 42.816-111.41 42.828-45.973-0.011719-87.434-18.59-117.59-48.707-20.281-20.305-35.148-45.805-42.816-74.293l540.12 0.003906c1.5977 0 3.1094 0.34766 4.5117 0.9375l-362.76 296.73c-6.4297 5.3398-15.969 8.5195-25.75 8.4844-9.793 0.023438-19.32-3.1562-25.754-8.4727l-362.52-296.79c1.3438-0.52734 2.7734-0.88672 4.2734-0.88672z"/>
</svg>
