<?xml version="1.0" encoding="UTF-8"?>
<svg width="1200pt" height="1200pt" version="1.1" viewBox="0 0 1200 1200" xmlns="http://www.w3.org/2000/svg">
 <g>
  <path d="m1198.9 454.74c-0.4375-2.4297-1.5469-4.6875-3.2031-6.5195-0.77344-1.1094-1.6602-2.1406-2.6367-3.0781-0.33984-0.28125-0.48047-0.67969-0.82031-0.94141l-192.28-149.38v-154.82c0-33.137-26.863-60-60-60h-216.74l-86.781-67.379c-21.445-16.699-51.496-16.699-72.941 0l-86.801 67.379h-216.74c-33.137 0-60 26.863-60 60v154.82l-192.28 149.38c-0.33984 0.26172-0.48047 0.66016-0.82031 0.94141-0.97656 0.9375-1.8633 1.9688-2.6367 3.0781-0.75781 0.96875-1.4258 1.9961-2 3.082-0.47266 1.1133-0.84766 2.2617-1.1211 3.4375-0.41797 1.3008-0.69141 2.6445-0.82031 4 0 0.42188-0.24219 0.78125-0.24219 1.2031v680.06c0.035156 12.719 4.1406 25.09 11.723 35.301 0.12109 0.17969 0.14062 0.37891 0.27734 0.55859 0.14062 0.17969 0.46094 0.33984 0.64062 0.5625 11.238 14.781 28.711 23.496 47.281 23.578h1080c18.648-0.054688 36.199-8.8242 47.441-23.699 0.16016-0.17969 0.39844-0.24219 0.55859-0.44141s0.16016-0.37891 0.28125-0.55859c7.5781-10.211 11.688-22.582 11.719-35.301v-680c0-0.42188-0.21875-0.78125-0.23828-1.1992-0.125-1.3789-0.40234-2.7422-0.82031-4.0625zm-610.94-410.56c6.9961-5.5195 16.863-5.5195 23.859 0l46.141 35.82h-116zm-368 475.82c11.047 0 20-8.9531 20-20v-360c0-11.047 8.9531-20 20-20h680c11.047 0 20 8.9531 20 20v360c0 11.047 8.9531 20 20 20s20-8.9531 20-20v-154.52l140.68 109.32-333.52 259c-8.7305 6.7695-10.32 19.336-3.5508 28.07 6.7734 8.7305 19.34 10.32 28.07 3.5508l328.32-254.96v638.34l-523.52-406.58c-21.438-16.727-51.504-16.727-72.941 0l-523.54 406.58v-638.34l327.74 254.48c8.7344 6.6172 21.164 4.9766 27.883-3.6797 6.7148-8.6562 5.2188-21.105-3.3594-27.922l-332.94-258.54 140.68-109.32v154.52c0 11.047 8.9531 20 20 20zm914.96 640h-1069.9l522.96-406.22c6.9844-5.5508 16.875-5.5508 23.859 0z"/>
  <path d="m614.14 256.42 13.781-13.762c19.316-20.562 48.297-28.98 75.625-21.965 27.328 7.0117 48.672 28.34 55.703 55.664 7.0352 27.32-1.3633 56.309-21.91 75.641l-55.078 55.078c-16.461 16.387-39.391 24.535-62.5 22.211-23.105-2.3242-43.957-14.875-56.82-34.211-6.1133-9.1992-18.531-11.703-27.73-5.5898-9.2031 6.1172-11.703 18.531-5.5898 27.73 19.484 29.344 51.102 48.402 86.152 51.93 35.047 3.5234 69.828-8.8555 94.766-33.727l55.082-55.062c29.758-29.633 41.422-72.902 30.582-113.48-10.84-40.574-42.531-72.266-83.105-83.105-40.574-10.84-83.848 0.82422-113.48 30.582l-13.762 13.762c-5.1992 5.0195-7.2852 12.457-5.4531 19.449 1.832 6.9922 7.2891 12.453 14.285 14.285 6.9922 1.8281 14.426-0.25781 19.449-5.457z"/>
  <path d="m517.38 580c31.148 0.089844 61.039-12.293 83-34.379l13.762-13.762c7.5781-7.8477 7.4688-20.32-0.24609-28.035-7.7109-7.7148-20.188-7.8242-28.035-0.24609l-13.781 13.762c-19.316 20.562-48.297 28.98-75.625 21.965-27.328-7.0117-48.672-28.34-55.703-55.664-7.0352-27.32 1.3633-56.309 21.91-75.641l55.078-55.078c16.461-16.387 39.391-24.535 62.5-22.211 23.105 2.3242 43.957 14.875 56.82 34.211 6.1133 9.1992 18.531 11.703 27.73 5.5898 9.2031-6.1172 11.703-18.531 5.5898-27.73-19.504-29.32-51.117-48.355-86.156-51.883-35.035-3.5234-69.809 8.8359-94.762 33.68l-55.082 55.062c-33.555 33.57-43.59 84.051-25.422 127.9 18.168 43.852 60.957 72.449 108.42 72.457z"/>
 </g>
</svg>
