<?xml version="1.0" encoding="UTF-8"?>
<svg width="1200pt" height="1200pt" version="1.1" viewBox="0 0 1200 1200" xmlns="http://www.w3.org/2000/svg">
 <path d="m1119.5 505.84-40.559-26.07c-5.6367-3.5781-12.746-3.8945-18.676-0.82422-5.9258 3.0664-9.7773 9.0547-10.109 15.723-0.33203 6.6641 2.9023 13.008 8.4961 16.648l40.566 26.074c3.0898 2.0977 5.9648 4.4961 8.5781 7.1641l-430.69 276.9-32.395-20.82c-13.379-8.4141-28.859-12.879-44.664-12.879-15.801-0.003906-31.285 4.4609-44.664 12.871l-32.406 20.832-430.68-276.9c2.6172-2.668 5.4922-5.0703 8.582-7.168l40.559-26.074c5.5938-3.6406 8.8281-9.9844 8.4961-16.648-0.33203-6.668-4.1836-12.656-10.109-15.723-5.9297-3.0703-13.039-2.7539-18.676 0.82422l-40.547 26.07c-26.891 17.195-43.133 46.938-43.059 78.855v484.06c0.027344 24.855 9.9141 48.684 27.492 66.258 17.574 17.578 41.402 27.465 66.258 27.492h937.5c24.855-0.027344 48.684-9.9141 66.258-27.492 17.578-17.574 27.465-41.402 27.492-66.258v-484.06c0.070312-31.914-16.164-61.656-43.047-78.855zm4.7773 72.711c0.37109 2.0352 0.62891 4.0859 0.76953 6.1445v484.06c-0.035156 12.062-3.9883 23.789-11.258 33.414l-402-258.42zm-1038 523.62c-7.2695-9.625-11.223-21.352-11.258-33.414v-484.06c0.14453-2.0586 0.39844-4.1094 0.76953-6.1406l412.48 265.2zm44.992 22.836c-3.2383-0.042969-6.4648-0.37109-9.6484-0.97656l454.02-291.87v0.003906c7.3008-4.5977 15.754-7.0352 24.387-7.0352 8.6289 0.003906 17.082 2.4453 24.383 7.043l454.01 291.86c-3.1836 0.60547-6.4102 0.93359-9.6484 0.97656zm75-562.5c4.9727 0 9.7422-1.9766 13.258-5.4922 3.5156-3.5156 5.4922-8.2852 5.4922-13.258v-412.5c0.015625-14.914 5.9492-29.211 16.492-39.758 10.547-10.543 24.844-16.477 39.758-16.492h531.44c4.1445 0.03125 8.2734 0.52344 12.312 1.4609v92.289c0.015625 14.914 5.9492 29.211 16.492 39.758 10.547 10.543 24.844 16.477 39.758 16.492h92.242c0.96094 4.0352 1.4688 8.1641 1.5078 12.312v306.44c0 6.6992 3.5742 12.887 9.375 16.238 5.8008 3.3477 12.949 3.3477 18.75 0 5.8008-3.3516 9.375-9.5391 9.375-16.238v-306.44c0.066406-24.875-9.8203-48.742-27.457-66.281l-106.07-106.07c-17.539-17.637-41.406-27.523-66.281-27.457h-531.44c-24.855 0.027344-48.684 9.9141-66.258 27.492-17.578 17.574-27.465 41.402-27.492 66.258v412.5c0 4.9727 1.9766 9.7422 5.4922 13.258 3.5156 3.5156 8.2852 5.4922 13.258 5.4922zm742.24-375h-67.238c-4.9727-0.007812-9.7344-1.9844-13.25-5.5s-5.4922-8.2773-5.5-13.25v-67.238zm-217.24 318.75h40.715c4.9766-0.011719 9.7539 1.9648 13.266 5.4922l26.512 26.516c3.5078 3.5664 8.293 5.5859 13.293 5.6094 5 0.023437 9.8047-1.9531 13.34-5.4922 3.5391-3.5352 5.5156-8.3398 5.4922-13.34-0.023438-5-2.043-9.7852-5.6094-13.293l-26.516-26.512c-10.523-10.59-24.848-16.523-39.777-16.48h-40.715v-42.734l31.23-10.41c11.852-3.9766 22.055-11.77 29.012-22.156l30.359-45.547c3.6484-5.5742 4.0664-12.664 1.0977-18.629-2.9688-5.9648-8.8789-9.9023-15.527-10.352-6.6445-0.44531-13.031 2.668-16.773 8.1758l-30.348 45.539c-2.3242 3.4648-5.7305 6.0625-9.6875 7.3906l-25.016 8.3398c-6.418-13.383-17.867-23.684-31.848-28.664v-40.953c-0.035156-25.402-12.949-49.055-34.297-62.824l8.6523-25.953c1.8789-5.5938 6.2656-9.9844 11.855-11.867l38.461-12.816c4.7305-1.5625 8.6445-4.9414 10.879-9.3945 2.2344-4.4492 2.6055-9.6055 1.0312-14.332s-4.9609-8.6328-9.418-10.855c-4.457-2.2227-9.6172-2.582-14.336-0.99609l-38.469 12.816h-0.003906c-16.773 5.6406-29.941 18.812-35.578 35.586l-8.7148 26.148c-1.7031-0.11719-3.3281-0.51172-5.0625-0.51172h-37.5c-1.7344 0-3.3555 0.39453-5.0625 0.51172l-8.7188-26.156c-5.6406-16.773-18.809-29.941-35.586-35.578l-38.461-12.816c-4.7188-1.5859-9.8789-1.2266-14.336 0.99609-4.457 2.2227-7.8438 6.1289-9.418 10.855-1.5742 4.7227-1.2031 9.8828 1.0312 14.332 2.2344 4.4531 6.1484 7.832 10.875 9.3945l38.453 12.816c5.5977 1.8789 9.9883 6.2695 11.867 11.863l8.6523 25.953-0.003906 0.003906c-21.348 13.77-34.258 37.422-34.293 62.824v40.953c-13.98 4.9805-25.43 15.281-31.844 28.664l-25.02-8.3398c-3.9531-1.3242-7.3555-3.918-9.6758-7.3789l-30.359-45.551c-2.7383-4.1875-7.0352-7.1133-11.938-8.1172-4.9023-1.0039-10.004-0.007813-14.168 2.7656-4.1641 2.7773-7.043 7.1016-8 12.016-0.95703 4.9102 0.085937 10.004 2.9023 14.141l30.367 45.559 0.003906-0.003907c6.9531 10.387 17.152 18.172 29.004 22.148l31.227 10.41v42.734h-40.715c-14.93-0.042969-29.254 5.8906-39.777 16.48l-26.516 26.512c-3.5664 3.5078-5.5859 8.293-5.6094 13.293-0.023437 5 1.9531 9.8047 5.4922 13.34 3.5352 3.5391 8.3398 5.5156 13.34 5.4922 5-0.023438 9.7852-2.043 13.293-5.6094l26.512-26.516c3.5117-3.5273 8.2891-5.5039 13.266-5.4922h40.715v18.75c0.035156 7.8008 0.76953 15.586 2.1875 23.258l-33.414 11.137h-0.003907c-11.852 3.9766-22.055 11.77-29.012 22.156l-30.359 45.547c-2.8164 4.1367-3.8594 9.2305-2.9023 14.141 0.95703 4.9141 3.8359 9.2383 8 12.016 4.1641 2.7734 9.2656 3.7695 14.168 2.7656 4.9023-1.0039 9.1992-3.9297 11.938-8.1172l30.348-45.539c2.3242-3.4648 5.7305-6.0625 9.6875-7.3867l33.449-11.148v-0.003906c14.574 29.164 39.5 51.844 69.906 63.605 30.406 11.762 64.109 11.762 94.516 0 30.406-11.762 55.332-34.441 69.906-63.605l33.449 11.148v0.003906c3.9531 1.3203 7.3555 3.9141 9.6758 7.3789l30.359 45.547c2.7461 4.168 7.0391 7.0703 11.93 8.0625 4.8945 0.99219 9.9766-0.007813 14.133-2.7773 4.1523-2.7695 7.0273-7.0781 7.9922-11.977 0.96484-4.8945-0.0625-9.9727-2.8516-14.113l-30.367-45.555c-6.957-10.387-17.156-18.172-29.004-22.148l-33.414-11.137h-0.003906c1.4219-7.6719 2.1523-15.457 2.1875-23.258zm-187.5-150v-37.5c0.011719-9.9414 3.9648-19.477 10.996-26.504 7.0273-7.0312 16.562-10.984 26.504-10.996h37.5c9.9414 0.011719 19.477 3.9648 26.504 10.996 7.0312 7.0273 10.984 16.562 10.996 26.504v37.5zm56.25 262.5c-24.855-0.027344-48.684-9.9141-66.258-27.492-17.578-17.574-27.465-41.402-27.492-66.258v-112.5c0.007812-4.9727 1.9844-9.7344 5.5-13.25s8.2773-5.4922 13.25-5.5h56.25v131.25c0 6.6992 3.5742 12.887 9.375 16.238 5.8008 3.3477 12.949 3.3477 18.75 0 5.8008-3.3516 9.375-9.5391 9.375-16.238v-131.25h56.25c4.9727 0.007812 9.7344 1.9844 13.25 5.5s5.4922 8.2773 5.5 13.25v112.5c-0.027344 24.855-9.9141 48.684-27.492 66.258-17.574 17.578-41.402 27.465-66.258 27.492z"/>
</svg>
