<?xml version="1.0" encoding="UTF-8"?>
<svg width="1200pt" height="1200pt" version="1.1" viewBox="0 0 1200 1200" xmlns="http://www.w3.org/2000/svg">
 <path d="m712.52 787.5c4.543-0.003906 8.9336-1.6602 12.348-4.6562 3.4141-3 5.625-7.1328 6.2227-11.641 0.59375-4.5039-0.46875-9.0742-2.9883-12.855l-30.359-45.559v0.003907c-6.9648-10.383-17.168-18.168-29.023-22.137l-33.406-11.145c1.418-7.6719 2.1523-15.457 2.1875-23.262v-18.75h40.723c4.9688 0.015625 9.7344 1.9883 13.258 5.4922l26.512 26.516c4.75 4.6641 11.621 6.4609 18.043 4.7148 6.4258-1.7422 11.445-6.7617 13.188-13.188 1.7461-6.4219-0.050781-13.293-4.7148-18.043l-26.516-26.512c-10.523-10.582-24.844-16.516-39.77-16.48h-40.723v-42.746l31.219-10.41c11.859-3.9688 22.066-11.762 29.023-22.156l30.359-45.535c3.6367-5.5742 4.0469-12.66 1.0781-18.613-2.9688-5.957-8.875-9.8945-15.512-10.344-6.6406-0.44922-13.023 2.6523-16.77 8.1523l-30.359 45.52 0.003907 0.003906c-2.3242 3.4727-5.7305 6.0781-9.6875 7.4141l-25.004 8.3398c-6.418-13.387-17.867-23.691-31.852-28.672v-40.953c-0.03125-25.402-12.941-49.055-34.289-62.824l8.6328-25.961 0.003906-0.003906c1.8906-5.5859 6.2773-9.9727 11.863-11.863l38.469-12.801h0.003906c6.3555-2.1172 11.098-7.4688 12.438-14.031 1.3438-6.5625-0.91797-13.344-5.9336-17.789-5.0117-4.4453-12.016-5.875-18.371-3.7578l-38.469 12.816v0.003906c-16.77 5.6367-29.934 18.793-35.578 35.559l-8.7148 26.164c-1.7031-0.11719-3.3242-0.51172-5.0547-0.51172h-37.5c-1.7344 0-3.3594 0.39453-5.0625 0.51172l-8.7266-26.164c-5.6367-16.77-18.793-29.934-35.559-35.578l-38.469-12.801c-6.3555-2.1172-13.359-0.6875-18.371 3.7578-5.0156 4.4453-7.2773 11.227-5.9336 17.789 1.3398 6.5625 6.082 11.914 12.438 14.031l38.469 12.801h0.003906c5.5859 1.8828 9.9688 6.2734 11.848 11.863l8.6484 25.965-0.003906 0.003907c-21.344 13.77-34.25 37.422-34.281 62.82v40.953c-13.984 4.9805-25.434 15.285-31.848 28.672l-25.004-8.3398h-0.003907c-3.9531-1.3359-7.3555-3.9336-9.6836-7.3984l-30.359-45.539c-2.7383-4.1875-7.0352-7.1133-11.938-8.1172-4.9023-1.0039-10.004-0.007813-14.168 2.7656-4.1641 2.7773-7.043 7.1016-8 12.016-0.95703 4.9102 0.085937 10.004 2.9023 14.141l30.359 45.559v-0.003907c6.9648 10.383 17.168 18.168 29.023 22.137l31.219 10.41v42.746h-40.723c-14.926-0.035156-29.246 5.8984-39.77 16.48l-26.516 26.512c-3.5664 3.5078-5.5859 8.293-5.6094 13.293-0.023437 5 1.9531 9.8047 5.4922 13.34 3.5352 3.5391 8.3398 5.5156 13.34 5.4922 5-0.023438 9.7852-2.043 13.293-5.6094l26.512-26.516c3.5234-3.5039 8.2891-5.4766 13.258-5.4922h40.723v18.75c0.035156 7.8047 0.76953 15.59 2.1875 23.262l-33.406 11.145c-11.859 3.9727-22.066 11.762-29.023 22.156l-30.359 45.535c-2.8164 4.1367-3.8594 9.2305-2.9023 14.141 0.95703 4.9141 3.8359 9.2383 8 12.016 4.1641 2.7734 9.2656 3.7695 14.168 2.7656 4.9023-1.0039 9.1992-3.9297 11.938-8.1172l30.359-45.52c2.3203-3.4727 5.7266-6.082 9.6836-7.418l33.438-11.152c14.574 29.168 39.5 51.852 69.91 63.613 30.406 11.766 64.109 11.766 94.516 0 30.41-11.762 55.336-34.445 69.91-63.613l33.438 11.152c3.9531 1.3359 7.3555 3.9336 9.6836 7.3984l30.359 45.539c3.4805 5.2227 9.3438 8.3594 15.621 8.3477zm-262.52-300v-37.5c0.011719-9.9414 3.9688-19.473 10.996-26.504 7.0312-7.0273 16.562-10.984 26.504-10.996h37.5c9.9414 0.011719 19.473 3.9688 26.504 10.996 7.0273 7.0312 10.984 16.562 10.996 26.504v37.5zm56.25 262.5c-24.855-0.027344-48.684-9.9141-66.258-27.492-17.578-17.574-27.465-41.402-27.492-66.258v-112.5c0.003906-4.9727 1.9805-9.7383 5.4961-13.254s8.2812-5.4922 13.254-5.4961h56.25v131.25c0 6.6992 3.5742 12.887 9.375 16.238 5.8008 3.3477 12.949 3.3477 18.75 0 5.8008-3.3516 9.375-9.5391 9.375-16.238v-131.25h56.25c4.9727 0.003906 9.7383 1.9805 13.254 5.4961s5.4922 8.2812 5.4961 13.254v112.5c-0.027344 24.855-9.9141 48.684-27.492 66.258-17.574 17.578-41.402 27.465-66.258 27.492zm131.25 262.5h-431.25c-14.914-0.015625-29.211-5.9492-39.758-16.492-10.543-10.547-16.477-24.844-16.492-39.758v-825c0.015625-14.914 5.9492-29.211 16.492-39.758 10.547-10.543 24.844-16.477 39.758-16.492h493.93c4.1484 0.035156 8.2812 0.52344 12.324 1.4609v92.289c0.015625 14.914 5.9492 29.211 16.492 39.758 10.547 10.543 24.844 16.477 39.758 16.492h92.289c0.9375 4.043 1.4258 8.1758 1.4609 12.324v268.93c0 6.6992 3.5742 12.887 9.375 16.238 5.8008 3.3477 12.949 3.3477 18.75 0 5.8008-3.3516 9.375-9.5391 9.375-16.238v-268.93c0.066406-24.883-9.8242-48.758-27.465-66.305l-106.05-106.05c-17.547-17.641-41.422-27.531-66.305-27.465h-493.93c-24.855 0.027344-48.684 9.9141-66.258 27.492-17.578 17.574-27.465 41.402-27.492 66.258v825c0.027344 24.855 9.9141 48.684 27.492 66.258 17.574 17.578 41.402 27.465 66.258 27.492h431.25c6.6992 0 12.887-3.5742 16.238-9.375 3.3477-5.8008 3.3477-12.949 0-18.75-3.3516-5.8008-9.5391-9.375-16.238-9.375zm198.49-825h-67.238c-4.9727-0.003906-9.7383-1.9805-13.254-5.4961s-5.4922-8.2812-5.4961-13.254v-67.238zm206.25 731.25h-67.238v-300c-0.015625-14.914-5.9492-29.211-16.492-39.758-10.547-10.543-24.844-16.477-39.758-16.492h-75c-14.914 0.015625-29.211 5.9492-39.758 16.492-10.543 10.547-16.477 24.844-16.492 39.758v300h-67.238c-12.004 0-23.516 4.7695-32.004 13.258-8.4883 8.4883-13.258 20-13.258 32.008 0 12.004 4.7695 23.516 13.258 32.004l147.73 147.73c12.004 12.004 28.285 18.75 45.262 18.75s33.258-6.7461 45.262-18.75l147.73-147.73c8.4883-8.4883 13.258-20 13.258-32.004 0-12.008-4.7695-23.52-13.258-32.008-8.4883-8.4883-20-13.258-32.004-13.258zm5.4922 50.758-147.73 147.73c-5.0547 4.8125-11.77 7.4961-18.75 7.4961s-13.695-2.6836-18.75-7.4961l-147.73-147.73c-2.2188-2.2227-2.8789-5.5625-1.6758-8.4648 1.1992-2.8984 4.0312-4.793 7.1719-4.793h85.984c4.9727 0.003906 9.7461-1.9727 13.262-5.4883s5.4922-8.2891 5.4883-13.262v-318.75c0.003906-4.9727 1.9805-9.7383 5.4961-13.254s8.2812-5.4922 13.254-5.4961h75c4.9727 0.003906 9.7383 1.9805 13.254 5.4961s5.4922 8.2812 5.4961 13.254v318.75c-0.003906 4.9727 1.9727 9.7461 5.4883 13.262s8.2891 5.4922 13.262 5.4883h85.988c3.1367 0 5.9688 1.8945 7.168 4.793 1.2031 2.9023 0.54297 6.2422-1.6758 8.4648z"/>
</svg>
