<?xml version="1.0" encoding="UTF-8"?>
<svg width="1200pt" height="1200pt" version="1.1" viewBox="0 0 1200 1200" xmlns="http://www.w3.org/2000/svg">
 <g>
  <path d="m1156.2 1061.3-56.762-442.92c-0.35938-3-1.0781-5.7617-2.0391-8.2812 0-0.12109-0.12109-0.23828-0.12109-0.48047-0.12109-0.23828-0.12109-0.48047-0.23828-0.71875-3.2383-8.3984-9.2383-15.359-16.922-19.922l-94.078-55.199-15.961-124.92c-1.1992-9.6016-6.1211-18.121-13.68-24-7.6797-5.8789-17.16-8.5195-26.641-7.1992l-172.2 21.965-80.039-46.922c-15.719-9.2383-35.641-6.7188-48.48 6.2383l-65.641 65.641-67.078 8.6406-4.5586-35.641c-0.71875-5.6406-4.6797-10.199-10.078-11.762-5.3984-1.5586-11.281 0.12109-14.879 4.4414l-41.879 49.922c-0.60156 0.71875-1.1992 1.5586-1.6797 2.3984l-32.039 4.0781c-19.801 2.5195-33.719 20.641-31.199 40.441l12 93.84c-21.359-0.23828-42.121-7.4414-59.281-20.762-21-16.32-34.441-39.719-37.922-66.121l-46.32-361.56c12.359-4.3203 23.16-12 31.32-22.559 8.5195-10.922 13.32-24 14.039-37.559 29.879-12.602 50.039-30.602 51.359-31.801 5.7617-5.2812 6.2383-14.16 0.96094-20.039-5.2812-5.7617-14.281-6.2383-20.039-0.96094-0.23828 0.23828-15 13.32-36.961 23.762-4.4414-11.281-11.762-21.238-21.602-28.922-14.398-11.16-32.281-15.961-50.281-13.68-28.801 3.7188-51 24.961-57.48 51.719-51 3.7227-86.52 20.883-88.441 21.961-6.9609 3.4805-9.8398 12-6.3594 18.961 2.3984 5.0391 7.4414 7.9219 12.602 7.9219 2.1602 0 4.1992-0.48047 6.2383-1.4414 0.48047-0.23828 31.078-15 75.359-18.961 3.1211 16.32 11.879 30.84 25.199 41.039 10.559 8.1602 23.039 12.961 36 14.039l46.32 361.44c4.3203 33.84 21.602 64.078 48.719 84.961 22.68 17.52 49.801 26.762 78 26.762 0.71875 0 1.5586 0 2.2812-0.12109l0.35938 2.7617-77.039 77.039c-6.3594 6.2383-10.441 14.641-11.398 23.398v0.83984 0.60156c-0.23828 2.7617-0.23828 5.6406 0.12109 8.5195l56.762 442.92c1.3203 10.559 6.7188 19.922 15.121 26.52 7.0781 5.3984 15.48 8.2812 24.359 8.2812 1.6797 0 3.4805-0.12109 5.1602-0.35937l732.84-93.84c21.598-2.6445 37.074-22.684 34.195-44.402zm-955.2-1032.6c1.6797-0.23828 3.4805-0.35938 5.1602-0.35938 8.7617 0 17.16 2.8789 24.238 8.2812 5.5234 4.3203 9.6016 9.957 12.242 16.199-12.602 3.1211-26.281 4.3203-40.199 2.0391-11.16-1.8008-21.961-2.8789-32.398-3.2383 5.5156-12 16.918-21.121 30.957-22.922zm-32.762 51.359c9.4805 0.23828 19.441 1.1992 29.52 2.8789 15.961 2.6406 31.32 1.8008 45.48-1.0781-4.9219 13.441-17.039 23.762-32.16 25.68-10.559 1.3203-20.879-1.4414-29.281-7.9219-6.4766-5.1562-11.156-11.879-13.559-19.559zm550.56 847.56c1.9219 0.96094 3.9609 1.3203 6.1211 1.3203 3.2383 0 6.4805-1.0781 9.1211-3.3594l97.078-81.359 281.64 234.12-721.92 92.398 213.6-297.48zm407.76 125.52-273.36-227.28 148.08-124.08 0.12109-0.12109 72.48-60.719zm-62.758-440.88-61.078 51.238-12-94.078zm-414.6-233.28c3.7188-3.7188 9.4805-4.4414 14.039-1.8008l48.359 28.32-102 13.078zm284.16 26.758c2.0391-0.23828 4.0781 0.23828 5.7617 1.5586 1.6797 1.3203 2.6406 3.1211 3 5.1602l34.922 272.64-254.28 213-299.64-142.08-19.32-150.48c28.199-6.8398 53.039-22.801 70.922-46.078 20.879-27 30.121-60.602 25.68-94.441l-0.48047-3.7188zm-465.48 27.359 0.48047 3.6016-3.8398 0.48047zm-72.957 41.523 77.039-9.8398 0.48047 3.7188c3.3594 26.398-3.7188 52.441-20.039 73.559-13.32 17.281-31.441 29.398-52.078 35.039l-12-93.84c-0.72266-4.1992 2.2773-8.0391 6.5977-8.6367zm-2.2812 266.88-72-34.199 60-60zm-74.52-3.8398 260.16 123.36-207.36 288.84z"/>
  <path d="m500.76 587.88 4.6797 36.48-29.039-22.441c-6.2383-4.8008-15.121-3.6016-19.922 2.5195-4.8008 6.2383-3.6016 15.121 2.5195 19.922l45 34.801-34.801 45c-4.8008 6.2383-3.6016 15.121 2.5195 19.922 2.6406 2.0391 5.6406 3 8.6406 3 4.1992 0 8.3984-1.9219 11.281-5.5195l22.441-29.039 4.6797 36.48c0.96094 7.1992 7.0781 12.359 14.039 12.359 0.60156 0 1.1992 0 1.8008-0.12109 7.8008-0.96094 13.32-8.1602 12.238-15.84l-4.6797-36.48 29.039 22.441c2.6406 2.0391 5.6406 3 8.6406 3 4.1992 0 8.3984-1.9219 11.281-5.5195 4.8008-6.2383 3.6016-15.121-2.5195-19.922l-45-34.801 34.801-45c4.8008-6.2383 3.6016-15.121-2.5195-19.922-6.2383-4.8008-15.121-3.6016-19.922 2.5195l-22.441 29.039-4.6797-36.48c-0.96094-7.8008-8.1602-13.32-15.84-12.238-7.6797 0.96094-13.199 8.0391-12.238 15.84z"/>
  <path d="m622.08 603.48 45 34.801-34.801 45c-4.8008 6.2383-3.6016 15.121 2.5195 19.922 2.6406 2.0391 5.6406 3 8.6406 3 4.1992 0 8.3984-1.9219 11.281-5.5195l22.441-29.039 4.8008 36.355c0.96094 7.1992 7.0781 12.359 14.039 12.359 0.60156 0 1.1992 0 1.8008-0.12109 7.8008-0.96094 13.32-8.1602 12.238-15.84l-4.6797-36.48 29.039 22.441c2.6406 2.0391 5.6406 3 8.6406 3 4.1992 0 8.3984-1.9219 11.281-5.5195 4.8008-6.2383 3.6016-15.121-2.5195-19.922l-45-34.801 34.801-45c4.8008-6.2383 3.6016-15.121-2.5195-19.922-6.2383-4.8008-15.121-3.6016-19.922 2.5195l-22.441 29.039-4.6797-36.48c-0.96094-7.8008-8.1602-13.32-15.84-12.238-7.8008 0.96094-13.32 8.1602-12.238 15.84l4.6797 36.48-29.039-22.441c-6.2383-4.8008-15.121-3.6016-19.922 2.5195-4.918 6.3672-3.8398 15.246 2.3984 20.047z"/>
  <path d="m785.16 582.6 45 34.801-34.801 45c-4.8008 6.2383-3.6016 15.121 2.5195 19.922 2.6406 2.0391 5.6406 3 8.6406 3 4.1992 0 8.3984-1.9219 11.281-5.5195l22.441-29.039 4.6797 36.48c0.96094 7.1992 7.0781 12.359 14.039 12.359 0.60156 0 1.1992 0 1.8008-0.12109 7.8008-0.96094 13.32-8.1602 12.238-15.84l-4.6797-36.48 29.039 22.441c2.6406 2.0391 5.6406 3 8.6406 3 4.1992 0 8.3984-1.9219 11.281-5.5195 4.8008-6.2383 3.6016-15.121-2.5195-19.922l-45-34.801 34.801-45c4.8008-6.2383 3.6016-15.121-2.5195-19.922-6.2383-4.8008-15.121-3.6016-19.922 2.5195l-22.441 29.039-4.6797-36.48c-0.96094-7.8008-8.1602-13.199-15.84-12.238-7.8008 0.96094-13.32 8.1602-12.238 15.84l4.6797 36.48-29.039-22.441c-6.2383-4.8008-15.121-3.6016-19.922 2.5195-4.8008 6.2422-3.6016 15.121 2.5195 19.922z"/>
 </g>
</svg>
