<?xml version="1.0" encoding="UTF-8"?>
<svg width="1200pt" height="1200pt" version="1.1" viewBox="0 0 1200 1200" xmlns="http://www.w3.org/2000/svg">
 <g>
  <path d="m249.02 682.2c-0.58203-17.254-13.184-31.598-29.078-34.312l-0.003906-408.46c10.469-5.4297 20.355-12.02 29.469-19.773l9.8867-8.3359-55.637-180.68h-103.72l-55.637 180.68 9.8867 8.3359c9.1133 7.7539 19 14.348 29.469 19.773v408.46c-15.898 2.7148-28.496 17.059-29.078 34.312l-14.348 405.95c-0.77734 21.52 6.9805 42.066 22.293 57.965 16.867 17.449 41.098 27.527 66.496 27.527h45.363c25.59 0 49.824-10.082 66.496-27.527 15.316-15.898 23.262-36.445 22.293-57.77zm-120-612.21h45.363l39.355 127.56c-5.8164 3.8789-11.824 7.3672-18.027 10.082-6.9805 3.1016-14.734 6.2031-15.121 13.375v14.734 411.95h-57.582v-412.15c0-5.0391 0.38672-11.438 0.38672-16.09-0.77734-6.5898-10.082-9.5-16.672-12.406-5.8164-2.7148-11.633-5.8164-16.867-9.5zm83.555 1048.8c-9.3047 9.6914-23.262 15.316-38.191 15.316l-45.363-0.003906c-14.926 0-28.691-5.6211-38.191-15.316-7.7539-8.1406-11.824-18.418-11.438-29.273l14.152-402.84h116.12l14.152 403.04c0.58203 10.664-3.4883 21.133-11.242 29.082z"/>
  <path d="m129.6 710.5c-5.8164 0-10.469 4.6523-10.469 10.469v379c0 5.8164 4.6523 10.469 10.469 10.469s10.469-4.6523 10.469-10.469v-378.8c0-5.8164-4.8477-10.664-10.469-10.664z"/>
  <path d="m173.99 710.5c-5.8164 0-10.469 4.6523-10.469 10.469v379c0 5.8164 4.6523 10.469 10.469 10.469 5.8164 0 10.469-4.6523 10.469-10.469l-0.003907-378.8c0-5.8164-4.6523-10.664-10.465-10.664z"/>
  <path d="m1135.9 117.09c-35.281-61.648-97.707-95.379-162.65-88.207-7.5625 0.77734-13.957 5.2344-17.641 12.02-3.4883 6.7852-3.4883 14.926 0.19531 21.52 8.1406 14.926 37.805 68.047 53.895 96.543 0.96875 1.9375 1.5508 6.9805 0.96875 8.7227-9.6914 29.469-37.996 47.301-67.27 42.262-1.7461-0.96875-4.8477-4.0703-5.8164-5.6211-14.734-27.914-42.648-82.973-50.016-97.898-3.4883-6.9805-10.664-11.824-18.418-12.406-7.9492-0.58203-15.508 3.1016-20.16 9.6914-39.934 56.996-44.781 130.47-12.988 191.92 16.09 31.02 40.711 56.027 71.148 72.309l-5.6211 712.25c-0.19531 23.652 8.918 46.141 25.977 63.199 17.641 17.836 41.484 27.723 67.074 27.723s49.242-9.8867 67.074-27.723c16.867-17.059 26.172-39.547 25.785-63.199l-6.7852-718.45c38.578-24.426 65.523-63.004 75.992-108.95 10.27-45.945 3.0977-94.219-20.746-135.7zm-78.32 212.66c-5.2344 3.1016-9.3047 7.5625-12.215 12.793l-0.38672 0.77734c-2.5195 4.8477-3.8789 10.469-3.8789 16.09l6.7852 721.36c0.19531 12.988-5.0391 25.59-14.348 35.09-10.273 10.273-24.039 16.09-38.965 16.09-14.926 0-28.691-5.6211-38.965-16.09-9.5-9.5-14.539-22.102-14.539-35.09l5.8164-718.06v-2.1328-0.38672c-0.77734-10.469-6.9805-19.773-16.285-24.234-25.395-12.406-45.945-32.57-59.129-57.965-20.551-39.355-21.711-85.105-4.2656-125.04 11.438 22.488 26.559 51.762 36.254 70.176 4.6523 8.7227 17.059 22.875 32.375 25.785l1.3555 0.19531c23.457 4.0703 47.691-0.58203 68.238-13.375 20.355-12.602 35.863-32.18 43.426-55.25 4.457-13.57 1.3555-30.438-4.0703-40.324-10.855-19.191-27.723-49.434-40.129-71.73 39.355 4.6523 75.219 29.469 97.707 68.625 38.191 67.469 18.418 153.93-44.781 192.7z"/>
  <path d="m1016.7 1082.9c0 12.527-10.152 22.684-22.68 22.684-12.527 0-22.684-10.156-22.684-22.684 0-12.523 10.156-22.68 22.684-22.68 12.527 0 22.68 10.156 22.68 22.68"/>
  <path d="m993.05 1005.8c6.5898 0 11.824-5.2344 11.824-11.824v-578.68c0-6.5898-5.2344-11.824-11.824-11.824-6.5898 0-11.824 5.2344-11.824 11.824v578.87c-0.003907 6.3945 5.2305 11.629 11.824 11.629z"/>
  <path d="m864.52 406.33-0.77734-2.3281c-15.703-46.914-36.641-85.105-62.422-113.8-37.223-41.484-83.555-62.035-137.25-61.262-4.6523 0-6.2031-0.96875-14.734-9.8867-12.793-13.375-31.988-33.539-77.738-34.121h-49.629c-32.762 0-63.781 16.672-83.168 44.59-4.2656 6.0078-6.0078 7.9492-6.5898 8.3359-0.38672 0.19531-1.9375 0.38672-6.0078 0.19531-4.2656-0.19531-8.3359-3.4883-14.926-9.3047-9.8867-8.5312-23.262-19.969-44.199-19.773l-63.973-0.77734h-0.19531c-23.844 0-43.23 19.969-43.23 44.395v172.93c0 24.426 19.387 44.395 43.039 44.395l64.363 0.77734h0.38672c20.355 0 36.832-14.348 48.852-24.812 2.9062-2.5195 6.9805-6.0078 9.3047-7.7539 10.082-0.58203 12.215 1.5508 14.734 5.2344 2.9062 4.0703 6.2031 8.1406 9.6914 11.633 2.1328 66.301 4.0703 139.77 6.0078 205.49 2.1328 72.504 4.457 144.81 6.5898 217.32-3.4883 68.047-6.5898 202.78-6.5898 204.14v0.58203c0 50.984 39.742 92.473 88.594 92.473h32.375c48.852 0 88.594-41.484 88.594-92.473v-0.38672c0-1.3555-2.5195-136.09-6.0078-204.14 2.1328-71.73 4.457-149.66 6.5898-224.88 2.1328-72.117 4.2656-146.36 6.3984-215.38 3.8789-2.5195 7.7539-4.6523 11.242-6.2031 31.406-15.121 75.023 3.1016 101.78 28.887 13.766 13.184 30.047 28.887 50.598 28.887 6.9805 0 14.348-1.7461 22.293-6.2031 9.5-5.2344 20.16-17.059 15.703-43.812-2.3242-11.445-6.3945-23.27-9.6914-32.965zm-242.71 245.82c-2.1328 75.605-4.457 153.73-6.7852 225.46v1.9375c3.4883 65.719 6.0078 197.16 6.0078 203.36 0 26.559-19.969 48.078-44.395 48.078h-32.375c-24.426 0-44.395-21.52-44.395-48.078 0.19531-6.9805 3.2969-137.84 6.5898-203.36v-1.9375c-2.3281-72.699-4.457-145.39-6.7852-218.29-1.7461-56.219-3.4883-120-5.2344-176.8 8.7227 2.5195 17.836 3.8789 27.141 3.8789h49.242c19.191 0 37.805-8.1406 55.25-18.609 0.19531 0.77734 0.38672 1.5508 0.58203 2.5195-1.3516 59.32-3.0977 121.36-4.8438 181.84zm194.05-223.91c-36.641-35.09-99.645-61.648-151.41-36.832-11.633 5.6211-23.262 13.57-35.672 22.102-19.387 13.375-41.484 28.691-57.578 28.691h-49.242c-18.027 0-34.895-8.918-46.141-24.621-14.734-20.551-34.699-23.652-47.496-23.652-3.6836 0-6.7852 0.19531-9.1133 0.38672-12.602 0.96875-22.102 9.5-32.375 18.223-4.6523 4.0703-15.508 13.57-19.578 13.957l-63.586-0.77734v-0.19531-172.93-0.19531l63.586 0.77734h0.38672c3.6836-0.19531 7.1719 2.5195 14.734 8.918 9.3047 7.9492 21.906 18.805 41.293 19.969 28.887 1.7461 40.516-11.438 51.566-27.527 11.051-15.898 28.496-25.59 46.719-25.59h49.242c27.141 0.38672 35.672 9.3047 46.332 20.355 9.6914 10.082 22.875 24.039 47.496 23.652h2.5195c87.625 0 132.41 78.516 154.51 144.81l0.77734 2.3281c1.3555 4.0703 4.0703 12.215 6.0078 19.578-3.4805-2.5156-7.7461-6.3906-12.98-11.434z"/>
 </g>
</svg>
