<?xml version="1.0" encoding="UTF-8"?>
<svg width="1200pt" height="1200pt" version="1.1" viewBox="0 0 1200 1200" xmlns="http://www.w3.org/2000/svg">
 <path d="m778.12 1181.2h-285.38c-13.445 0-26.34-5.3281-35.863-14.816-9.5234-9.4883-14.898-22.363-14.949-35.809v-285c-17.57-10.629-28.25-29.715-28.125-50.25v-144.38c-93.75 3.75-93.75-140.81 0-137.06v-45.188c0-15.531 6.1562-30.43 17.121-41.434 10.969-11 25.848-17.203 41.379-17.254h97.125v-22.5c0.13281-12.004 5.3516-23.391 14.359-31.328 9.0117-7.9375 20.965-11.68 32.891-10.297v-183.56c0-6.6992 3.5742-12.887 9.375-16.238 5.8008-3.3477 12.949-3.3477 18.75 0 5.8008 3.3516 9.375 9.5391 9.375 16.238v183.94c11.926-1.3828 23.879 2.3594 32.891 10.297 9.0078 7.9375 14.227 19.324 14.359 31.328v22.5h97.125c15.484 0.046875 30.328 6.1953 41.312 17.109s17.227 25.719 17.375 41.203v326.25c0.058594 20.516-10.703 39.539-28.312 50.062v285.56c-0.050781 13.445-5.4258 26.32-14.949 35.809-9.5234 9.4883-22.418 14.816-35.863 14.816zm-298.69-327.38v276.75c0 3.5156 1.4062 6.8789 3.9102 9.3477s5.8906 3.8281 9.4023 3.7773h285.38c3.5117 0.050781 6.8984-1.3086 9.4023-3.7773s3.9102-5.832 3.9102-9.3477v-276.75zm-7.125-37.5h326.25c5.5586-0.09375 10.863-2.332 14.812-6.2461 3.9453-3.9102 6.2305-9.1992 6.375-14.754v-326.62c-0.050781-5.6055-2.2969-10.965-6.2617-14.926-3.9609-3.9648-9.3203-6.2109-14.926-6.2617h-326.25c-5.5859 0.050781-10.93 2.3047-14.859 6.2734-3.9336 3.9648-6.1406 9.3281-6.1406 14.914v326.25c-0.050781 5.6211 2.1328 11.027 6.0742 15.035 3.9375 4.0117 9.3047 6.2891 14.926 6.3398zm-63.938-264.94c-11.086 0.97266-20.812 7.7852-25.516 17.871-4.6992 10.086-3.6641 21.914 2.7188 31.031 6.3867 9.1133 17.148 14.133 28.234 13.16v-62.062zm198.56-141h56.25v-22.5c0-1.0938-0.43359-2.1445-1.207-2.918-0.77344-0.77344-1.8242-1.207-2.918-1.207h-47.812c-1.125-0.050781-2.2227 0.35938-3.0391 1.1406-0.8125 0.77734-1.2734 1.8555-1.2734 2.9844zm133.12 710.81h-209.25c-4.9727 0-9.7422-1.9766-13.258-5.4922-3.5156-3.5156-5.4922-8.2852-5.4922-13.258v-209.62c0-4.9727 1.9766-9.7422 5.4922-13.258 3.5156-3.5156 8.2852-5.4922 13.258-5.4922h209.25c4.9727 0 9.7422 1.9766 13.258 5.4922 3.5156 3.5156 5.4922 8.2852 5.4922 13.258v209.62c0 4.9727-1.9766 9.7422-5.4922 13.258-3.5156 3.5156-8.2852 5.4922-13.258 5.4922zm-51-37.5h32.25v-32.25h-32.25zm-70.312 0h32.25v-32.25h-32.25zm-69.75 0h32.25v-32.25h-31.688zm139.5-69.75h32.25v-32.062h-31.688zm-69.75 0h32.25v-32.062h-32.25zm-69.75 0h32.25v-32.062h-31.688zm139.5-70.125h32.25v-32.25h-31.688zm-69.75 0h32.25v-32.25h-32.25zm-69.75 0h32.25v-32.25h-31.688zm209.06-169.69h-245.81c-4.9727 0-9.7422-1.9766-13.258-5.4922-3.5156-3.5156-5.4922-8.2852-5.4922-13.258v-246.38c0-4.9727 1.9766-9.7422 5.4922-13.258 3.5156-3.5156 8.2852-5.4922 13.258-5.4922h246.38c4.9727 0 9.7422 1.9766 13.258 5.4922 3.5156 3.5156 5.4922 8.2852 5.4922 13.258v246.38c0 4.9727-1.9766 9.7422-5.4922 13.258-3.5156 3.5156-8.2852 5.4922-13.258 5.4922zm-227.62-37.5h209.44v-208.88h-208.88zm-42.938-430.5c-134.25-41.625-137.62-235.88-6.9375-286.12 6.2305-2.4805 13.309-1.4453 18.57 2.7109 5.2617 4.1562 7.9062 10.805 6.9375 17.438-0.96875 6.6328-5.4023 12.246-11.633 14.727-28.594 11.746-51.328 34.395-63.188 62.938-11.855 28.547-11.855 60.641 0 89.188 11.859 28.543 34.594 51.191 63.188 62.938 5.4609 2.1562 9.5938 6.7461 11.168 12.402 1.5781 5.6562 0.41406 11.723-3.1406 16.395-3.5547 4.668-9.0938 7.4062-14.965 7.3906zm297.75 0c-5.8711 0.015625-11.41-2.7227-14.965-7.3906-3.5547-4.6719-4.7188-10.738-3.1406-16.395 1.5742-5.6562 5.707-10.246 11.168-12.402 28.691-11.652 51.535-34.289 63.449-62.871 11.918-28.582 11.918-60.738 0-89.32-11.914-28.582-34.758-51.219-63.449-62.871-6.2305-2.5117-10.645-8.1562-11.586-14.809-0.9375-6.6523 1.7422-13.297 7.0312-17.438 5.2891-4.1367 12.387-5.1406 18.617-2.6289 129.56 50.438 126.38 244.5-8.0625 286.12zm-40.312-43.688c-5.8945 0.074219-11.477-2.625-15.078-7.2891-3.6016-4.668-4.8008-10.754-3.2383-16.434 1.5664-5.6836 5.7109-10.301 11.191-12.465 17.316-6.9219 31.129-20.508 38.34-37.707 7.207-17.199 7.207-36.574 0-53.773-7.2109-17.199-21.023-30.785-38.34-37.707-4.9023-1.6445-8.9102-5.2461-11.07-9.9453-2.1602-4.6992-2.2812-10.082-0.33984-14.875 1.9453-4.793 5.7812-8.5703 10.605-10.438 4.8203-1.8711 10.203-1.6641 14.867 0.57031 19.895 7.8438 36.961 21.508 48.969 39.203s18.402 38.598 18.344 59.984c0.31641 22.609-6.7656 44.703-20.172 62.914-13.406 18.215-32.395 31.543-54.078 37.961zm-219 0c-21.824-6.2812-40.98-19.555-54.527-37.777-13.551-18.223-20.742-40.391-20.473-63.098-0.058594-21.387 6.3359-42.289 18.344-59.984s29.074-31.359 48.969-39.203c4.6641-2.2344 10.047-2.4414 14.867-0.57031 4.8242 1.8672 8.6602 5.6445 10.605 10.438 1.9414 4.793 1.8203 10.176-0.33984 14.875-2.1602 4.6992-6.168 8.3008-11.07 9.9453-17.316 6.9219-31.129 20.508-38.34 37.707-7.207 17.199-7.207 36.574 0 53.773 7.2109 17.199 21.023 30.785 38.34 37.707 5.4023 2.1289 9.5156 6.6445 11.133 12.223 1.6172 5.5781 0.55859 11.594-2.8672 16.281-3.4258 4.6914-8.8359 7.5273-14.641 7.6836zm187.5-47.25c-5.8711 0.015625-11.41-2.7227-14.965-7.3906-3.5547-4.6719-4.7188-10.738-3.1406-16.395 1.5742-5.6562 5.707-10.246 11.168-12.402 4.6133-1.8945 8.2773-5.5469 10.191-10.152 1.9141-4.6016 1.9141-9.7812 0-14.383-1.9141-4.6055-5.5781-8.2578-10.191-10.152-4.6289-1.8359-8.3359-5.4375-10.305-10.012-1.9688-4.5703-2.0391-9.7383-0.19531-14.363 19.875-34.688 63.375 15 59.812 41.625 0.41406 12.73-3.7148 25.191-11.652 35.156s-19.16 16.777-31.66 19.219zm-154.88 0c-12.164-2.6523-23.023-9.4531-30.723-19.238-7.6953-9.7852-11.75-21.941-11.465-34.387-3.75-26.625 39.75-76.312 59.625-41.625 1.8438 4.625 1.7734 9.793-0.19531 14.363-1.9688 4.5742-5.6758 8.1758-10.305 10.012-4.6133 1.8945-8.2773 5.5469-10.191 10.152-1.9141 4.6016-1.9141 9.7812 0 14.383 1.9141 4.6055 5.5781 8.2578 10.191 10.152 6.5977 1.3398 11.98 6.0977 14.121 12.48 2.1367 6.3867 0.70703 13.426-3.75 18.469-4.4609 5.0469-11.273 7.3281-17.871 5.9883z"/>
</svg>
