<?xml version="1.0" encoding="UTF-8"?>
<svg width="1200pt" height="1200pt" version="1.1" viewBox="0 0 1200 1200" xmlns="http://www.w3.org/2000/svg">
 <g>
  <path d="m1163.4 591.1c-7.6875-3.2383-15.578-4.8555-23.871-4.8555-24.273 0-46.121 14.363-55.832 36.816l-4.4492 10.316c-8.293-11.125-19.219-20.43-32.77-26.297-10.113-4.4492-20.836-6.6758-31.961-6.6758-18.207 0-35.199 6.2695-48.953 16.789l-396.49-129.06 3.2383-7.4844c15.375-35.805-1.2148-77.68-37.223-93.055-8.9023-3.8438-18.207-5.6641-27.918-5.6641-23.262 0-44.504 11.531-57.652 30.141l-101.75-73.23c-8.6992-6.2695-18.812-9.5078-29.332-9.5078-20.23 0-38.438 11.934-46.324 30.547l-17.195 39.852-31.559-13.555 5.0586-11.734c5.0586-11.934 5.4609-25.691 0.60547-37.426-4.4492-11.328-12.945-20.027-23.871-24.68l-38.645-16.781c-22.66-9.7109-50.777 2.4258-61.094 26.094l-5.0586 11.734-9.3047-4.0469c-22.859-9.7109-50.977 2.2266-61.094 26.098l-25.891 60.484c-4.8555 11.531-5.4609 24.273-1.418 35.805 4.25 12.137 12.945 21.441 24.477 26.5l9.3047 4.0469-5.0586 11.734c-10.52 24.273 0 52.191 23.262 62.105l38.637 16.59c5.4609 2.4258 11.328 3.6406 17.398 3.6406 18.812 0 36.008-11.531 43.695-29.535l5.0586-11.734 31.559 13.555-16.992 39.852c-6.0703 14.16-5.4609 29.938 1.8203 43.492 7.2812 13.555 20.027 23.062 35.199 25.895l123.2 23.262c-2.6289 13.352-1.418 27.105 3.6406 40.055 7.082 17.598 20.43 31.355 37.828 38.84 8.9023 3.8438 18.207 5.6641 27.918 5.6641 28.32 0 54.012-16.789 65.137-42.887l3.2383-7.4844 366.76 198.45c0.80859 7.082 2.2266 14.363 5.0586 21.242 8.0898 20.027 23.465 35.805 43.289 44.301 10.113 4.4492 20.836 6.6758 31.961 6.6758 3.2383 0 6.4727-0.40625 9.7109-0.80859l-4.25 10.113c-6.4727 14.969-6.6758 31.355-0.60547 46.527 6.0703 14.969 17.598 26.906 32.367 33.176 7.6875 3.2383 15.578 4.8555 23.871 4.8555 24.273 0 46.324-14.363 55.832-36.816l159.61-371.81c12.746-31.156-1.4141-66.961-32.16-80.113zm-318.21 279.77-107.21-58.059 85.57-199.26 115.91 37.625-73.027 170.13zm-142.82-77.277-35.805-19.422 79.703-185.7 38.637 12.543zm-563.99-311.93-21.039 48.953c-1.418 3.4375-4.4492 5.0586-6.4727 5.0586l-40.055-16.992c-2.4258-1.0117-3.8438-5.0586-2.0234-9.1016l21.039-48.953-46.527-20.027c-1.418-0.60547-2.0234-1.8203-2.4258-2.832-0.60547-1.6211-0.40625-3.8477 0.40625-6.0742l25.895-60.484c1.418-3.2383 4.0469-4.8555 7.082-4.8555h0.80859l46.527 20.027 21.039-48.953c1.418-3.4375 4.4492-5.0586 7.8906-4.8555l38.637 16.59c1.0117 0.40625 1.8203 1.2148 2.2266 2.4258 0.80859 2.0234 0.60547 4.25-0.20312 6.4727l-21.039 48.754 68.578 29.535-31.961 74.445zm73.23 131.09c-0.80859-1.6172-2.0234-4.8555-0.40625-8.4961l32.57-75.859 48.348-112.68 17.195-39.852c1.8203-4.4492 6.0703-6.0703 9.1016-6.0703 2.0234 0 4.0469 0.60547 5.6641 1.8203l107.62 77.477-11.734 27.309-71.207 165.88-130.48-24.68c-3.8398-0.60547-5.8633-3.4375-6.6719-4.8516zm180.04 109.64c-7.4844-3.2383-13.148-9.1016-16.184-16.59-3.0352-7.4844-2.832-15.777 0.20312-23.262l103.78-241.74c4.8555-11.125 15.777-18.41 27.918-18.41 4.0469 0 8.0898 0.80859 11.934 2.4258 15.375 6.6758 22.453 24.477 15.98 39.852l-4.6523 10.922-47.133 109.84-51.785 120.77c-6.6797 15.176-24.887 22.66-40.059 16.188zm114.7-87.793 46.73-109.04 154.55 50.371-76.871 179.03-143.02-77.277zm396.49 307.08c-9.9141-4.25-17.598-12.137-21.645-22.254-4.0469-10.113-3.8438-21.039 0.40625-30.949l87.594-204.32 8.0898-18.812c6.4727-14.969 21.039-24.477 37.223-24.477 5.4609 0 10.723 1.0117 15.98 3.2383 20.43 8.6992 29.938 32.57 21.242 53l-95.684 223.33c-8.7031 20.023-32.977 29.938-53.207 21.238zm255.09-286.85-159.61 371.81c-4.25 9.9141-16.387 14.969-26.5 10.52-10.316-4.4492-14.969-16.387-10.723-26.5l31.961-74.242 95.684-223.13 31.961-74.242c3.2383-7.4844 10.52-12.34 18.609-12.34 2.6289 0 5.4609 0.60547 7.8906 1.6172 10.527 4.4531 15.18 16.391 10.727 26.504z"/>
  <path d="m533.65 358.87c4.8555 0 9.7109-1.6172 13.555-5.2578l67.363-60.484c8.293-7.4844 9.1016-20.23 1.6172-28.523-7.4844-8.293-20.23-8.9023-28.523-1.6172l-67.363 60.484c-8.293 7.4844-9.1016 20.23-1.6172 28.523 3.8438 4.6484 9.3047 6.875 14.969 6.875z"/>
  <path d="m667.57 229.8c4.8555 0 9.7109-1.6172 13.555-5.2578l67.363-60.484c8.293-7.4844 9.1016-20.23 1.6172-28.523-7.4844-8.293-20.23-8.9023-28.523-1.6172l-67.363 60.484c-8.293 7.4844-9.1016 20.23-1.6172 28.523 3.8438 4.6484 9.5078 6.875 14.969 6.875z"/>
  <path d="m364.12 229.6c4.8555 0 9.9141-1.8203 13.758-5.2578l74.445-68.578c8.293-7.6875 8.6992-20.43 1.2148-28.523-7.4883-8.0938-20.637-8.9023-28.727-1.418l-74.445 68.578c-8.293 7.6875-8.6992 20.43-1.2148 28.523 4.0469 4.4492 9.5078 6.6758 14.969 6.6758z"/>
  <path d="m548.41 211.6c4.6523 0 9.3047-1.6172 12.945-4.8555l30.949-26.098c8.4961-7.2812 9.5078-20.027 2.4258-28.523s-20.027-9.7109-28.523-2.4258l-30.949 26.098c-8.4961 7.2812-9.5078 20.027-2.4258 28.523 4.0469 4.8555 9.7148 7.2812 15.578 7.2812z"/>
  <path d="m393.86 321.85c4.0469 4.6523 9.7109 7.082 15.375 7.082 4.6523 0 9.3047-1.6172 12.945-4.8555l77.277-65.34c8.4961-7.2812 9.5078-20.027 2.4258-28.523-7.082-8.4961-20.027-9.7109-28.523-2.4258l-77.277 65.34c-8.2891 7.4805-9.5039 20.227-2.2227 28.723z"/>
  <path d="m621.04 403.37c4.0469 4.4492 9.5078 6.8789 15.172 6.8789 4.6523 0 9.5078-1.6172 13.352-5.0586l76.062-66.758c8.4961-7.2812 9.3047-20.23 1.8203-28.523-7.2812-8.293-20.23-9.3047-28.523-1.8203l-76.062 66.758c-8.4961 7.2812-9.3047 20.027-1.8203 28.523z"/>
  <path d="m757.79 283.21c4.0469 4.4492 9.5078 6.8789 15.172 6.8789 4.6523 0 9.5078-1.6172 13.352-5.0586l22.453-19.824c8.4961-7.2812 9.3047-20.23 1.8203-28.523-7.2812-8.293-20.23-9.3047-28.523-1.8203l-22.453 19.824c-8.293 7.2812-9.1055 20.027-1.8203 28.523z"/>
  <path d="m735.54 419.35c-8.293 7.4844-9.1016 20.23-1.6172 28.523 4.0469 4.4492 9.5078 6.6758 14.969 6.6758 4.8555 0 9.7109-1.6172 13.555-5.2578l67.363-60.484c8.293-7.4844 9.1016-20.23 1.6172-28.523-7.4844-8.293-20.23-8.9023-28.523-1.6172z"/>
 </g>
</svg>
