<?xml version="1.0" encoding="UTF-8"?>
<svg width="1200pt" height="1200pt" version="1.1" viewBox="0 0 1200 1200" xmlns="http://www.w3.org/2000/svg">
 <g>
  <path d="m242.35 513.39c-104.77 0-190.02 85.238-190.02 190.01s85.242 190.02 190.02 190.02c104.77 0 190.02-85.242 190.02-190.02s-85.242-190.01-190.02-190.01zm0 349.7c-88.051 0-159.68-71.633-159.68-159.68s71.633-159.68 159.68-159.68c88.047 0 159.68 71.629 159.68 159.68s-71.629 159.68-159.68 159.68z"/>
  <path d="m242.35 563.1c-52.387 0-100.04 28.848-124.36 75.293-3.8867 7.4219-1.0195 16.586 6.3984 20.469 2.2461 1.1758 4.6523 1.7383 7.0234 1.7383 5.4609 0 10.738-2.957 13.449-8.1367 19.07-36.41 56.426-59.031 97.492-59.031 8.375 0 15.168-6.7891 15.168-15.168 0-8.375-6.7891-15.164-15.168-15.164z"/>
  <path d="m132.38 703.41c0-8.375-6.7891-15.168-15.168-15.168-8.375 0-15.168 6.7891-15.168 15.168 0 26.891 7.6328 53.023 22.078 75.578 2.8945 4.5195 7.7891 6.9922 12.785 6.9922 2.8008 0 5.6328-0.77734 8.1641-2.3984 7.0547-4.5156 9.1094-13.898 4.5938-20.949-11.309-17.664-17.285-38.141-17.285-59.223z"/>
  <path d="m1138.1 541.86c-0.14453-0.19922-0.23828-0.42188-0.39453-0.61328l-134.67-170.18c-0.5625-0.71094-1.1914-1.3711-1.8711-1.9688-17.352-15.277-36.941-27.398-58.141-35.996-6.1328-2.5273-12.578-4.6797-19.121-6.6172l-22.5-35.43c-7.2812-11.449-17.742-20.23-30.293-25.414-18.477-7.5703-38.027-11.406-58.109-11.406-50.211 0-97.297 24.664-125.93 65.941-8.7578 12.562-12.816 28.047-11.398 43.91l1.2227 11.129c-23.57 2.2266-49.191 5.8672-76.914 11.34-27.727-5.4727-53.348-9.1172-76.922-11.34l1.2539-11.434c1.3867-15.555-2.6719-31.039-11.406-43.57-28.652-41.312-75.734-65.977-125.95-65.977-20.082 0-39.633 3.8359-58.148 11.418-12.508 5.1641-22.969 13.949-30.258 25.406l-22.492 35.422c-6.5469 1.9375-12.977 4.0859-19.039 6.5859-21.285 8.6328-40.871 20.75-58.223 36.027-0.68359 0.60156-1.3086 1.2578-1.8711 1.9688l-134.67 170.18c-0.16016 0.20312-0.26172 0.43359-0.41016 0.64062-38.438 42.906-61.863 99.52-61.863 161.52 0 133.63 108.72 242.35 242.35 242.35 133.07 0 241.41-107.82 242.31-240.69l22.766-123.07c1.6719-5.1953 16.684-48.824 50.492-56.699 12.043 8.0898 26.516 12.824 42.082 12.824s30.039-4.7344 42.082-12.824c33.754 7.8633 48.773 51.359 50.477 56.645l22.781 123.17c0.92578 132.85 109.25 240.64 242.31 240.64 133.63 0 242.35-108.72 242.35-242.35 0-62.012-23.438-118.63-61.887-161.54zm-157.99-150.88 69.984 88.438c-28.512-11.816-59.73-18.375-92.465-18.375-104.11 0-193.08 65.992-227.32 158.34l-7.4609-40.359c33.977-122.34 154.88-149.48 160.03-150.58 6.1914-1.293 10.93-6.293 11.891-12.547 0.95703-6.2539-2.0664-12.445-7.5859-15.535-2.3867-1.3359-38.992-21.125-112.79-26.617 27.238-16.57 58.621-25.48 90.996-25.48 15.246 0 30.34 1.9492 44.871 5.793 7.332 1.9297 14.465 4.3164 21.277 7.1289 17.695 7.1758 34.031 17.203 48.562 29.801zm-274.25-29.895c-0.75391-8.4688 1.4102-16.836 6.1211-23.59 22.984-33.141 60.75-52.93 101.02-52.93 16.121 0 31.805 3.0781 46.57 9.125 6.707 2.7695 12.32 7.4883 16.23 13.629l7.2695 11.449c-5.8672-0.5-11.758-0.84375-17.676-0.84375-51.039 0-99.996 18.848-137.91 53.129-0.49219 0.44922-0.95312 0.92188-1.4414 1.375-6.1094 0.10547-12.398 0.30469-18.867 0.61719zm-365.51-67.379c14.809-6.0625 30.492-9.1367 46.613-9.1367 40.273 0 78.035 19.789 101.04 52.961 4.6875 6.7188 6.8555 15.09 6.1289 23.25l-1.3438 12.262c-6.4727-0.30859-12.762-0.51172-18.875-0.61328-0.51172-0.47656-0.97656-0.95312-1.5-1.4297-37.852-34.223-86.805-53.07-137.84-53.07-5.9219 0-11.809 0.34375-17.676 0.84375l7.2656-11.441c3.9102-6.1562 9.5234-10.871 16.188-13.625zm-120.5 97.273c14.531-12.605 30.871-22.629 48.652-29.836 6.7305-2.7773 13.863-5.1602 21.211-7.0977 14.516-3.8398 29.605-5.7891 44.855-5.7891 32.387 0 63.781 8.918 91 25.477-73.793 5.4883-110.4 25.281-112.79 26.621-5.5195 3.0898-8.5469 9.2773-7.5859 15.535 0.95703 6.2539 5.6953 11.258 11.891 12.547 1.2656 0.26563 125.86 27.727 160.02 150.57l-7.4648 40.363c-34.242-92.34-123.21-158.32-227.31-158.32-32.738 0-63.961 6.5586-92.477 18.379zm22.484 524.44c-116.91 0-212.02-95.109-212.02-212.02s95.109-212.02 212.02-212.02c116.91 0 212.02 95.109 212.02 212.02s-95.113 212.02-212.02 212.02zm252.59-376.98c-30.902-70.734-88.367-107.23-128.29-124.9 35.391-8.6523 95.207-16.324 180.4-4.9922-13.984 13.734-22.691 32.824-22.691 53.926 0 14.188 3.9961 27.426 10.82 38.785-18.105 8.5977-31.211 23.242-40.238 37.184zm59.75-75.965c0-24.988 20.328-45.312 45.312-45.312s45.312 20.324 45.312 45.312-20.328 45.312-45.312 45.312c-24.984-0.003907-45.312-20.328-45.312-45.312zm110.14 38.781c6.8203-11.359 10.82-24.598 10.82-38.785 0-21.102-8.7031-40.191-22.688-53.926 85.215-11.336 145.02-3.6602 180.4 4.9883-39.922 17.68-97.391 54.172-128.29 124.91-9.0273-13.941-22.137-28.586-40.238-37.184zm292.82 414.16c-116.91 0-212.02-95.109-212.02-212.02s95.109-212.02 212.02-212.02c116.91 0 212.02 95.109 212.02 212.02s-95.113 212.02-212.02 212.02z"/>
  <path d="m957.65 513.39c-104.77 0-190.02 85.238-190.02 190.01s85.242 190.02 190.02 190.02c104.77 0 190.02-85.242 190.02-190.02-0.003906-104.77-85.242-190.01-190.02-190.01zm0 349.7c-88.051 0-159.68-71.633-159.68-159.68s71.633-159.68 159.68-159.68c88.047 0 159.68 71.629 159.68 159.68s-71.633 159.68-159.68 159.68z"/>
  <path d="m847.68 703.41c0-8.375-6.7891-15.168-15.168-15.168-8.375 0-15.168 6.7891-15.168 15.168 0 26.902 7.6406 53.043 22.09 75.602 2.8945 4.5156 7.7891 6.9883 12.785 6.9883 2.8008 0 5.6328-0.77734 8.168-2.3984 7.0547-4.5156 9.1094-13.898 4.5898-20.953-11.316-17.668-17.297-38.152-17.297-59.238z"/>
  <path d="m957.65 563.1c-52.379 0-100.03 28.844-124.36 75.273-3.8867 7.4219-1.0234 16.586 6.3984 20.473 2.2461 1.1758 4.6523 1.7383 7.0234 1.7383 5.4609 0 10.738-2.957 13.449-8.1328 19.074-36.406 56.426-59.02 97.484-59.02 8.375 0 15.168-6.7891 15.168-15.168-0.003906-8.375-6.793-15.164-15.168-15.164z"/>
 </g>
</svg>
