<?xml version="1.0" encoding="UTF-8"?>
<svg width="1200pt" height="1200pt" version="1.1" viewBox="0 0 1200 1200" xmlns="http://www.w3.org/2000/svg">
 <g fill="#010101">
  <path d="m1150.6 17.648h-1101.2c-17.645 0-31.762 14.117-31.762 31.762v1102.9c0 17.648 14.117 31.766 31.766 31.766h1102.9c17.648 0 31.766-14.117 31.766-31.766l-0.003906-1102.9c-1.7656-17.645-15.883-31.762-33.527-31.762zm-3.5312 35.293v201.18h-1094.1v-201.18zm-1094.1 1094.1v-857.65h1094.1v857.65z"/>
  <path d="m158.82 218.82c35.293 0 63.531-28.234 63.531-63.531 0-35.293-28.234-63.531-63.531-63.531-35.293 0-63.531 28.234-63.531 63.531-1.7617 35.297 28.238 63.531 63.531 63.531zm0-91.766c15.883 0 28.234 12.352 28.234 28.234 0 15.883-12.352 28.234-28.234 28.234-15.883 0-28.234-12.352-28.234-28.234-1.7656-15.883 12.352-28.234 28.234-28.234z"/>
  <path d="m317.65 218.82c35.293 0 63.531-28.234 63.531-63.531 0-35.293-28.234-63.531-63.531-63.531-35.293 0-63.531 28.234-63.531 63.531-1.7656 35.297 28.234 63.531 63.531 63.531zm0-91.766c15.883 0 28.234 12.352 28.234 28.234 0 15.883-12.352 28.234-28.234 28.234-15.883 0-28.234-12.352-28.234-28.234-1.7656-15.883 12.352-28.234 28.234-28.234z"/>
  <path d="m476.47 218.82c35.293 0 63.531-28.234 63.531-63.531 0-35.293-28.234-63.531-63.531-63.531-35.293 0-63.531 28.234-63.531 63.531-1.7617 35.297 28.238 63.531 63.531 63.531zm0-91.766c15.883 0 28.234 12.352 28.234 28.234 0 15.883-12.352 28.234-28.234 28.234s-28.234-12.352-28.234-28.234c-1.7656-15.883 12.355-28.234 28.234-28.234z"/>
  <path d="m600 211.77h494.12c10.59 0 17.648-7.0586 17.648-17.648v-77.648c0-10.59-7.0586-17.648-17.648-17.648l-494.12 0.003907c-10.59 0-17.648 7.0586-17.648 17.648v77.645c0 10.59 7.0586 17.648 17.648 17.648zm17.648-77.648h458.82l-0.003906 42.352h-458.82z"/>
  <path d="m374.12 979.41 114.71-111.18c58.234 30 132.35 21.176 181.77-26.469 63.531-61.766 63.531-164.12-1.7656-227.65-60-56.469-155.29-56.469-215.29-1.7656-3.5312 3.5312-8.8242 8.8242-12.352 12.352h-8.8242-51.176c47.648-21.176 79.41-68.824 79.41-123.53 0-74.117-60-134.12-134.12-134.12-74.117 0-134.12 60-134.12 134.12 0 54.707 33.531 102.35 79.41 123.53h-54.707c-68.824 0-123.53 56.469-123.53 123.53v98.824c0 10.59 7.0586 17.648 17.648 17.648h234.71l-116.47 114.7c-19.41 19.41-21.176 51.176-1.7656 70.59 19.41 19.41 51.176 19.41 70.59 1.7656l3.5312-1.7656 33.531 35.293c7.0586 7.0586 17.648 7.0586 24.707 0 7.0586-7.0586 7.0586-17.648 0-24.707l-33.531-35.293 21.176-21.176 22.941 24.707c7.0586 7.0586 17.648 7.0586 24.707 0 7.0586-7.0586 7.0586-17.648 0-24.707zm-146.47-476.47c0-54.707 44.117-98.824 98.824-98.824 54.707 0 98.824 44.117 98.824 98.824 0 54.707-44.117 98.824-98.824 98.824-54.707 0-98.824-45.883-98.824-98.824zm-98.824 328.23v-81.176c0-49.41 40.59-88.234 88.234-88.234h201.18c-19.41 42.352-21.176 91.766 0 135.88l-35.293 35.293h-254.12zm125.29 194.12c-5.293-5.293-5.293-15.883 0-21.176l199.41-192.35c5.293-5.293 7.0586-14.117 3.5312-21.176-30-49.41-19.41-112.94 21.176-151.77 45.883-42.352 121.77-42.352 167.65 1.7656 51.176 47.648 51.176 127.06 0 176.47-42.352 40.59-104.12 44.117-150 15.883-7.0586-3.5312-15.883-3.5312-21.176 1.7656-8.8242 8.8242-137.65 132.35-183.53 178.23l-15.883 14.117c-5.2969 3.5312-15.887 3.5312-21.18-1.7656z"/>
  <path d="m624.71 799.41c38.824-37.059 38.824-97.059 1.7656-135.88-37.059-38.824-97.059-38.824-135.88-1.7656-38.824 37.059-38.824 97.059-1.7656 135.88 38.824 37.062 98.824 38.824 135.88 1.7656zm-107.65-111.18c22.941-22.941 61.766-22.941 84.707 1.7656s22.941 61.766-1.7656 84.707c-22.941 22.941-63.531 21.176-84.707-1.7656-22.941-24.707-22.941-61.766 1.7656-84.707z"/>
  <path d="m1050 382.94h-393.53c-10.59 0-17.648 7.0586-17.648 17.648v116.47c0 10.59 7.0586 17.648 17.648 17.648h393.53c10.59 0 17.648-7.0586 17.648-17.648v-116.47c0-10.59-8.8242-17.648-17.648-17.648zm-17.648 116.47h-358.23v-81.176h358.23z"/>
  <path d="m1050 624.71h-273.53c-10.59 0-17.648 7.0586-17.648 17.648 0 10.59 7.0586 17.648 17.648 17.648h273.53c10.59 0 17.648-7.0586 17.648-17.648 0-8.8242-8.8242-17.648-17.648-17.648z"/>
  <path d="m1050 755.29h-273.53c-10.59 0-17.648 7.0586-17.648 17.648s7.0586 17.648 17.648 17.648h273.53c10.59 0 17.648-7.0586 17.648-17.648 0-8.8242-8.8242-17.648-17.648-17.648z"/>
  <path d="m1050 885.88h-361.77c-10.59 0-17.648 7.0586-17.648 17.648s7.0586 17.648 17.648 17.648h361.77c10.59 0 17.648-7.0586 17.648-17.648 0-8.8242-8.8242-17.648-17.648-17.648z"/>
  <path d="m1050 1018.2h-584.12c-10.59 0-17.648 7.0586-17.648 17.648 0 10.59 7.0586 17.648 17.648 17.648h584.12c10.59 0 17.648-7.0586 17.648-17.648 0-10.59-8.8242-17.648-17.648-17.648z"/>
 </g>
</svg>
