<?xml version="1.0" encoding="UTF-8"?>
<svg width="1200pt" height="1200pt" version="1.1" viewBox="0 0 1200 1200" xmlns="http://www.w3.org/2000/svg">
 <path d="m597.75 72.027c-6.3672 0.29688-12.359 3.1094-16.652 7.8203-4.293 4.7109-6.5391 10.938-6.2383 17.305 0.29688 6.3711 3.1133 12.359 7.8281 16.648 4.7188 4.2891 10.945 6.5312 17.312 6.2266 264.12 0 480 235.15 480 528.73 0 130.16-38.727 241.32-108 331.49v-80.246c0.14844-6.9141-2.6914-13.555-7.7891-18.223-5.0977-4.668-11.965-6.9102-18.836-6.1523-5.9648 0.65625-11.469 3.5195-15.426 8.0312-3.957 4.5117-6.0781 10.344-5.9492 16.344v144c0 6.3633 2.5312 12.469 7.0312 16.969s10.605 7.0273 16.969 7.0273h144c6.4219 0.089844 12.613-2.3984 17.188-6.9062 4.5742-4.5117 7.1523-10.668 7.1523-17.09 0-6.4258-2.5781-12.582-7.1523-17.094-4.5742-4.5078-10.766-6.9961-17.188-6.9062h-90.375c80.641-100.3 126.38-226.46 126.38-371.24 0-317.23-235.42-576.73-528-576.73-0.75-0.035156-1.5-0.035156-2.25 0zm-492 60c-6.3672 0.29297-12.359 3.1055-16.652 7.8203-4.293 4.7109-6.5391 10.938-6.2383 17.305 0.29688 6.3672 3.1133 12.355 7.8281 16.645 4.7188 4.293 10.945 6.5312 17.312 6.2305h90.375c-80.641 100.3-126.38 226.09-126.38 370.86 0 317.23 235.42 577.11 528 577.11 6.4219 0.089844 12.613-2.3984 17.188-6.9102 4.5742-4.5078 7.1523-10.664 7.1523-17.09 0-6.4219-2.5781-12.578-7.1523-17.09-4.5742-4.5117-10.766-7-17.188-6.9102-264.12 0-480-235.53-480-529.11 0-130.16 38.727-240.95 108-331.12v80.25c-0.089844 6.4219 2.3984 12.613 6.9062 17.191 4.5117 4.5742 10.668 7.1484 17.094 7.1484s12.582-2.5742 17.094-7.1484c4.5078-4.5781 6.9961-10.77 6.9062-17.191v-144c0-6.3672-2.5312-12.469-7.0312-16.969-4.5-4.5039-10.605-7.0312-16.969-7.0312h-144c-0.75-0.035156-1.5-0.035156-2.25 0zm408 108c-5.9688 0.5625-11.508 3.3359-15.535 7.7773-4.0234 4.4414-6.2422 10.23-6.2148 16.223v74.246l-53.25-52.5v0.003907c-4.4922-4.4414-10.559-6.9336-16.875-6.9336s-12.383 2.4922-16.875 6.9336l-118.88 118.87c-4.4922 4.4453-7.0508 10.48-7.1211 16.797-0.070312 6.3203 2.3516 12.41 6.7461 16.953l52.875 53.625h-74.625v-0.003906c-6.3633 0.003906-12.469 2.5312-16.969 7.0312s-7.0312 10.605-7.0312 16.969v168c0 6.3672 2.5312 12.469 7.0312 16.969s10.605 7.0312 16.969 7.0312h74.25l-52.5 53.25c-4.3906 4.5391-6.8164 10.633-6.7461 16.949 0.070313 6.3203 2.6289 12.355 7.1211 16.797l118.88 118.87c4.4922 4.4453 10.559 6.9336 16.875 6.9336s12.383-2.4883 16.875-6.9336l53.25-52.496v74.625-0.003906c0 6.3672 2.5273 12.469 7.0312 16.973 4.5 4.5 10.605 7.0273 16.969 7.0273h168c6.3633 0 12.469-2.5273 16.969-7.0273 4.5039-4.5039 7.0312-10.605 7.0312-16.973v-74.625l53.25 52.5c4.4922 4.4453 10.559 6.9336 16.875 6.9336s12.383-2.4883 16.875-6.9336l118.88-118.87c4.4922-4.4414 7.0508-10.477 7.1211-16.797 0.070312-6.3164-2.3555-12.41-6.7461-16.949l-52.5-53.25h74.25c6.3633 0 12.469-2.5312 16.969-7.0312s7.0312-10.602 7.0312-16.969v-168c0-6.3633-2.5312-12.469-7.0312-16.969s-10.605-7.0273-16.969-7.0312h-74.625l52.875-53.625v0.003906c4.3945-4.543 6.8164-10.633 6.7461-16.953-0.070313-6.3164-2.6289-12.352-7.1211-16.797l-118.88-118.87c-4.4922-4.4414-10.559-6.9336-16.875-6.9336s-12.383 2.4922-16.875 6.9336l-53.25 52.496v-74.246c0-6.3633-2.5312-12.469-7.0312-16.969s-10.605-7.0312-16.969-7.0312h-168c-0.75-0.035157-1.5-0.035157-2.25 0zm26.25 48h120v71.996c0.035156 4.957 1.6055 9.7812 4.4922 13.809 2.8867 4.0312 6.9492 7.0664 11.633 8.6914 4.4219 1.5703 11.16 5.9766 21.375 10.875 4.4688 2.1758 9.5 2.9102 14.402 2.1055 4.9062-0.80469 9.4375-3.1133 12.973-6.6055l53.25-52.125 85.125 85.121-52.5 53.25v0.003906c-3.4141 3.5039-5.6719 7.9688-6.4766 12.793-0.80469 4.8242-0.11328 9.7812 1.9766 14.203 4.8789 10.215 9.7578 17.539 11.25 21.75 1.625 4.6836 4.6641 8.7461 8.6914 11.633 4.0273 2.8867 8.8516 4.457 13.809 4.4922h72v120h-72c-4.9102 0.007812-9.7031 1.5234-13.727 4.3398-4.0234 2.8164-7.0859 6.8008-8.7734 11.41-1.5156 4.2812-6.3555 11.488-11.25 21.75-2.0898 4.4219-2.7812 9.3789-1.9766 14.203 0.80469 4.8281 3.0625 9.2891 6.4766 12.797l52.5 53.25-85.125 85.121-53.25-52.125c-3.5352-3.4922-8.0664-5.7969-12.973-6.6055-4.9023-0.80469-9.9336-0.070313-14.402 2.1055-10.094 4.8398-17.418 9.3203-21.75 10.875-4.6719 1.7109-8.6992 4.832-11.52 8.9297-2.8203 4.0977-4.3008 8.9688-4.2305 13.945v72h-120v-72c0.042969-5.0195-1.4922-9.9258-4.3828-14.031-2.8945-4.1016-7-7.1953-11.742-8.8438-4.418-1.5703-11.156-5.9766-21.375-10.875-4.4688-2.1758-9.5-2.9102-14.402-2.1055-4.9062 0.80859-9.4375 3.1133-12.973 6.6055l-53.25 52.125-85.125-85.121 52.5-53.25c3.4141-3.5078 5.6719-7.9688 6.4766-12.797 0.80469-4.8242 0.11328-9.7812-1.9766-14.203-4.8789-10.215-9.7578-17.539-11.25-21.75-1.6875-4.6094-4.75-8.5938-8.7734-11.41-4.0234-2.8164-8.8164-4.332-13.727-4.3398h-72v-120h72c4.957-0.035156 9.7812-1.6055 13.809-4.4922 4.0273-2.8867 7.0664-6.9492 8.6914-11.633 1.5156-4.2852 6.3555-11.488 11.25-21.75 2.0898-4.4219 2.7812-9.3789 1.9766-14.203-0.80469-4.8242-3.0625-9.2891-6.4766-12.793l-52.5-53.25 85.125-85.121 53.25 52.125v-0.003907c3.5352 3.4922 8.0664 5.8008 12.973 6.6055 4.9023 0.80469 9.9336 0.070312 14.402-2.1055 10.09-4.8398 17.414-9.3203 21.75-10.875 4.6133-1.6875 8.5938-4.75 11.41-8.7734 2.8164-4.0234 4.332-8.8125 4.3398-13.727zm60 192c-65.988 0-120 54.008-120 120s54.012 120 120 120 120-54.008 120-120-54.012-120-120-120zm0 48c40.047 0 72 31.949 72 72 0 40.047-31.953 71.996-72 71.996s-72-31.949-72-71.996 31.953-72 72-72z"/>
</svg>
