<?xml version="1.0" encoding="UTF-8"?>
<svg width="1200pt" height="1200pt" version="1.1" viewBox="0 0 1200 1200" xmlns="http://www.w3.org/2000/svg">
 <g>
  <path d="m525 300c-124.07 0-225 100.93-225 225s100.93 225 225 225 225-100.93 225-225-100.93-225-225-225zm0 37.5c101.87 0 184.84 81.695 187.27 182.98l-117.41 52.836c-10.797-28.18-37.93-48.316-69.859-48.316-31.781 0-58.836 19.949-69.75 47.926l-117.38-55.238c3.8828-99.977 86.211-180.19 187.12-180.19zm37.5 262.5c0 20.68-16.82 37.5-37.5 37.5s-37.5-16.82-37.5-37.5 16.82-37.5 37.5-37.5 37.5 16.82 37.5 37.5zm-37.5 112.5c-91.199 0-167.32-65.492-184.01-151.89l110.27 51.898c6 35.402 36.672 62.496 73.742 62.496 37.012 0 67.633-27 73.727-62.305l109.84-49.426c-17.738 85.086-93.301 149.23-183.56 149.23z"/>
  <path d="m857.01 699.24c-7.332-7.332-19.18-7.332-26.512 0l-24.246 24.246-31.914-31.914c31.953-47.699 50.664-104.98 50.664-166.57 0-4.668-0.48828-9.207-0.69531-13.82l125.87-56.645c12.32 8.8711 27.285 14.215 43.578 14.215 41.363 0 75-33.637 75-75 0-26.043-13.367-48.992-33.582-62.438l65.27-163.14c1.9492 0.15234 3.8242 0.58203 5.8125 0.58203 41.363 0 75-33.637 75-75s-33.637-75-75-75-75 33.637-75 75c0 26.043 13.367 48.992 33.582 62.438l-65.27 163.14c-1.9492-0.15234-3.8242-0.58203-5.8125-0.58203-13.387 0-25.781 3.8047-36.676 9.9766l-105.82-120.96c6.9922-11.402 11.25-24.676 11.25-39.02 0-41.363-33.637-75-75-75-27.207 0-50.852 14.719-64.012 36.449l-292.45-34.406c0.019531-0.69141 0.20703-1.3477 0.20703-2.043 0-41.363-33.637-75-75-75s-75 33.637-75 75c0 19.031 7.3516 36.227 19.07 49.461l-171.05 222.38c-5.2734-2.8477-10.84-5.1367-16.766-6.6719v-192.83c32.25-8.3789 56.25-37.48 56.25-72.336 0-41.363-33.637-75-75-75s-75 33.637-75 75c0 34.855 24 63.957 56.25 72.336v192.82c-32.25 8.3828-56.25 37.484-56.25 72.34 0 41.363 33.637 75 75 75 25.727 0 48.449-13.031 61.969-32.832l70.238 33.039c-0.39453 6.168-0.95703 12.281-0.95703 18.543 0 165.41 134.59 300 300 300 61.594 0 118.88-18.711 166.57-50.664l31.914 31.914-24.242 24.242c-3.5273 3.5078-5.4961 8.2695-5.4961 13.258s1.9688 9.75 5.4922 13.258l291.56 291.56c21.078 21.074 49.09 32.68 78.883 32.68 61.52 0 111.56-50.043 111.56-111.56 0-29.793-11.605-57.805-32.68-78.883zm249.24-642.99c20.68 0 37.5 16.82 37.5 37.5s-16.82 37.5-37.5 37.5-37.5-16.82-37.5-37.5 16.82-37.5 37.5-37.5zm-45.262 900-104.74 104.74-160.99-160.99 104.74-104.74zm-29.738-562.5c0 20.68-16.82 37.5-37.5 37.5s-37.5-16.82-37.5-37.5 16.82-37.5 37.5-37.5 37.5 16.82 37.5 37.5zm-243.75-262.5c20.68 0 37.5 16.82 37.5 37.5s-16.82 37.5-37.5 37.5-37.5-16.82-37.5-37.5 16.82-37.5 37.5-37.5zm-431.25-75c20.68 0 37.5 16.82 37.5 37.5s-16.82 37.5-37.5 37.5-37.5-16.82-37.5-37.5 16.82-37.5 37.5-37.5zm-300 37.5c0-20.68 16.82-37.5 37.5-37.5s37.5 16.82 37.5 37.5-16.82 37.5-37.5 37.5-37.5-16.82-37.5-37.5zm37.5 375c-20.68 0-37.5-16.82-37.5-37.5s16.82-37.5 37.5-37.5 37.5 16.82 37.5 37.5-16.82 37.5-37.5 37.5zm74.344-30.977c0.1875-2.1719 0.65625-4.293 0.65625-6.5234 0-14.773-4.4453-28.48-11.852-40.105l174.56-226.93c7.8008 2.7539 16.051 4.5352 24.789 4.5352 27.207 0 50.852-14.719 64.012-36.449l292.46 34.406c-0.035156 0.69141-0.22266 1.3477-0.22266 2.043 0 41.363 33.637 75 75 75 13.387 0 25.781-3.8047 36.676-9.9766l105.84 120.96c-7.0117 11.402-11.27 24.676-11.27 39.02 0 10.988 2.5117 21.355 6.7695 30.77l-105.51 47.477c-25.125-140.2-147.71-247-295.01-247-145.65 0-267.28 104.38-294.3 242.25zm94.406 87.227c0-144.75 117.75-262.5 262.5-262.5s262.5 117.75 262.5 262.5-117.75 262.5-262.5 262.5-262.5-117.75-262.5-262.5zm458.96 226.2c10.594-9.207 20.531-19.145 29.738-29.738l28.539 28.539-29.738 29.738zm41.797 68.309 56.25-56.25 24.242-24.246 29.738 29.738-104.74 104.74-29.738-29.738zm306.43 324.24c-19.781 0-38.383-7.707-52.352-21.695l-34.574-34.555 104.74-104.74 34.555 34.555c13.988 13.988 21.695 32.59 21.695 52.371 0 40.836-33.227 74.062-74.062 74.062z"/>
  <path d="m1050 1050h37.5v37.5h-37.5z"/>
 </g>
</svg>
