<?xml version="1.0" encoding="UTF-8"?>
<svg width="1200pt" height="1200pt" version="1.1" viewBox="0 0 1200 1200" xmlns="http://www.w3.org/2000/svg">
 <g>
  <path d="m889.2 575.4v-170.6c0-65.199-25.398-126.4-71.398-172.2-45.801-46-107-71.398-172.2-71.398-59.602 0-117.2 22-162 62-7.6016 6.8008-8.8008 18.199-3 26.398l45 64c3.3984 4.8008 8.8008 8 14.602 8.3984 5.8008 0.60156 11.602-1.6016 15.801-5.8008 23.801-24 55.602-37.199 89.398-37.199 69.398 0 126 56.602 126 126v170.6h-252v-130.8c0-7.1992-3.8008-13.801-10-17.398l-77.398-44.199c-6-3.3984-13.398-2.3984-19.398 0.80078s-10 10.398-10.602 17.199c0 1.1992-0.19922 2.3984-0.19922 3.8008v170.6c-50.199 0.19922-90.801 41-90.801 91v342.6c0 50.199 40.801 91 91 91h487c50.199 0 91-40.801 91-91l-0.003906-342.8c0-50.199-40.801-91-90.801-91zm-243.8-336.8c-36.602 0-71.398 11.801-100 33.602l-21.602-30.602c35-26.199 77.602-40.602 121.6-40.602 54.398 0 105.6 21.199 143.8 59.801 38.602 38.398 59.801 89.398 59.801 143.8v170.6h-37.602v-170.6c0-91.402-74.398-166-166-166zm-203.6 196 37.602 21.602v119.2h-37.602zm447.2 625.4h-487c-28.199 0-51-23-51-51v-11.398h52c3.8008 0 7.6016-1 10.801-3.1992l45.398-29.199h80.602c11 0 20-9 20-20s-9-20-20-20h-86.398c-3.8008 0-7.6016 1-10.801 3.1992l-45.398 29.199h-46.199v-99.801h168.4c11 0 20-9 20-20s-9-20-20-20h-168.4v-99.801h46.199l45.398 29.199c3.1992 2 7 3.1992 10.801 3.1992h86.398c11 0 20-9 20-20s-9-20-20-20h-80.602l-45.398-29.199c-3.1992-2-7-3.1992-10.801-3.1992h-52v-11.398c0-28.199 23-51 51-51h486.8c28.199 0 51 23 51 51v11.398h-52c-3.8008 0-7.6016 1-10.801 3.1992l-45.398 29.199h-80.602c-11 0-20 9-20 20s9 20 20 20h86.398c3.8008 0 7.6016-1 10.801-3.1992l45.398-29.199h46.398v99.801h-168.4c-11 0-20 9-20 20s9 20 20 20h168.4v99.801h-46.199l-45.398-29.199c-3.1992-2-7-3.1992-10.801-3.1992h-86.398c-11 0-20 9-20 20s9 20 20 20h80.602l45.398 29.199c3.1992 2 7 3.1992 10.801 3.1992h51.996v11.398c0 28-23 51-51 51z"/>
  <path d="m398.4 237.8c2.8008 0 5.6016-0.60156 8.1992-1.8008 10-4.6016 14.602-16.398 10-26.398l-44.199-97.801c-4.6016-10-16.398-14.602-26.398-10-10 4.6016-14.602 16.398-10 26.398l44.199 97.801c3.4023 7.3984 10.602 11.801 18.199 11.801z"/>
  <path d="m374 334.2c-1.3984-11-11.199-19-22.199-17.398l-114.2 14c-11 1.3984-18.801 11.398-17.398 22.199 1.1992 10.199 9.8008 17.602 19.801 17.602 0.80078 0 1.6016 0 2.3984-0.19922l114.2-14c11-1.2031 18.797-11.203 17.398-22.203z"/>
  <path d="m247.4 184.8c-6.6016 8.8008-5 21.398 3.8008 28l90.801 69.199c3.6016 2.8008 7.8008 4 12 4 6 0 12-2.8008 16-7.8008 6.6016-8.8008 5-21.398-3.8008-28l-90.801-69.199c-8.7969-6.8008-21.398-5-28 3.8008z"/>
 </g>
</svg>
