<?xml version="1.0" encoding="UTF-8"?>
<svg width="1200pt" height="1200pt" version="1.1" viewBox="0 0 1200 1200" xmlns="http://www.w3.org/2000/svg">
 <g>
  <path d="m1184.8 506.81-57.168-175.61c-4.1641-12.75-16.633-20.719-30.055-19.219l-134.93 15.883c-11.512-15.414-24.02-30.074-37.352-43.82l37.633-132.64c3.6562-12.918-2.3242-26.645-14.305-32.738l-164.64-83.812c-12-6.1133-26.586-2.8516-34.895 7.707l-85.105 108.51c-19.031-2.6992-38.23-4.1797-57.375-4.4258l-66.582-118.46c-6.582-11.699-20.512-17.137-33.207-12.957l-175.67 57.148c-12.75 4.1445-20.793 16.727-19.238 30.039l15.918 134.96c-15.355 11.477-30 23.961-43.801 37.352l-132.66-37.613c-12.938-3.6758-26.625 2.3242-32.738 14.305l-83.793 164.62c-6.0938 11.98-2.8672 26.586 7.707 34.875l108.51 85.145c-2.7188 19.051-4.1992 38.25-4.4258 57.375l-118.5 66.562c-11.699 6.582-17.117 20.477-12.957 33.227l57.188 175.59c4.1641 12.75 16.836 21.02 30.039 19.199l134.96-15.898c11.477 15.336 23.98 30 37.367 43.801l-37.633 132.64c-3.6758 12.918 2.3242 26.645 14.289 32.738l164.66 83.867c11.98 6.0938 26.605 2.8672 34.895-7.707l85.125-108.52c19.051 2.6992 38.27 4.1992 57.395 4.4258l66.543 118.45c5.082 9.0547 14.57 14.363 24.523 14.363 2.8867 0 5.832-0.42969 8.6992-1.3672l175.65-57.168c12.77-4.1641 20.793-16.727 19.219-30.055l-15.883-134.93c15.32-11.457 29.98-23.98 43.801-37.387l132.64 37.633c12.898 3.6172 26.645-2.3242 32.738-14.305l83.793-164.64c6.0938-11.98 2.8516-26.605-7.707-34.895l-108.47-85.086c2.7188-19.086 4.1992-38.289 4.4258-57.414l118.41-66.523c11.688-6.5547 17.105-20.469 12.961-33.219zm-173.4 58.836c-9.0938 5.1016-14.625 14.852-14.344 25.273 0.69531 26.531-1.3672 53.438-6.168 79.949-1.875 10.273 2.1016 20.699 10.312 27.148l103.33 81.039-62.812 123.43-126.36-35.852c-9.9922-2.832-20.793 0.11328-28.012 7.6484-18.562 19.445-39.074 36.977-60.992 52.051-8.5703 5.9062-13.18 16.086-11.961 26.457l15.113 128.49-131.79 42.898-63.355-112.8c-4.9883-8.8867-14.383-14.363-24.523-14.363h-0.71094c-26.758 0.75-53.551-1.4062-79.988-6.168-10.312-1.9492-20.719 2.1016-27.133 10.312l-81.074 103.39-123.43-62.887 35.852-126.36c2.8516-10.031-0.09375-20.812-7.6484-28.012-19.406-18.523-36.918-39.039-52.031-60.977-5.9258-8.5859-16.145-13.332-26.457-11.98l-128.53 15.133-42.898-131.74 112.86-63.414c9.0938-5.1016 14.605-14.832 14.344-25.273-0.71094-26.57 1.3516-53.477 6.1484-79.895 1.8555-10.258-2.1172-20.699-10.312-27.148l-103.35-81.094 62.812-123.41 126.36 35.832c10.051 2.8867 20.812-0.074219 28.012-7.6328 18.508-19.387 39.039-36.883 60.992-52.012 8.5859-5.9062 13.199-16.086 11.98-26.457l-15.141-128.52 131.81-42.898 63.395 112.82c5.1016 9.0938 14.773 14.906 25.238 14.344 26.645-0.63672 53.551 1.4062 79.949 6.168 10.199 1.8555 20.68-2.1172 27.133-10.312l81.055-103.35 123.43 62.832-35.852 126.34c-2.832 10.031 0.09375 20.812 7.6484 28.012 19.273 18.414 36.789 38.945 52.031 61.031 5.8867 8.5859 15.863 13.258 26.438 11.961l128.49-15.133 42.898 131.76z"/>
  <path d="m837.24 575.66-337.61-194.95c-8.6992-5.043-19.426-5.043-28.125 0-8.6992 5.0234-14.062 14.305-14.062 24.355v389.85c0 10.051 5.3633 19.332 14.062 24.355 4.3516 2.5117 9.207 3.7695 14.062 3.7695 4.8555 0 9.7109-1.2578 14.062-3.7695l337.61-194.91c8.6992-5.043 14.062-14.305 14.062-24.355s-5.3594-19.352-14.062-24.355zm-323.55 170.57v-292.44l253.23 146.21z"/>
 </g>
</svg>
