<?xml version="1.0" encoding="UTF-8"?>
<svg width="1200pt" height="1200pt" version="1.1" viewBox="0 0 1200 1200" xmlns="http://www.w3.org/2000/svg">
 <g>
  <path d="m514.69 600c20.625 0 38.438-22.5 38.438-43.125v-299.06c0-20.625-17.812-32.812-38.438-32.812h-411.56c-20.625 0-37.5 11.25-37.5 32.812v299.06c0 20.625 16.875 43.125 37.5 43.125h131.25v28.125h-19.688c-10.312 0-18.75 8.4375-18.75 18.75s8.4375 18.75 18.75 18.75h188.44c10.312 0 18.75-8.4375 18.75-18.75s-8.4375-18.75-18.75-18.75h-18.75v-28.125zm-411.56-84.375v-253.12h411.56v253.12z"/>
  <path d="m0.9375 937.5c0 10.312 8.4375 18.75 18.75 18.75h246.56c7.5 18.75 23.438 28.125 43.125 28.125s35.625-9.375 43.125-28.125h495c7.5 18.75 23.438 28.125 43.125 28.125s35.625-9.375 43.125-28.125h247.5c10.312 0 18.75-8.4375 18.75-18.75s-8.4375-18.75-18.75-18.75h-248.44c-4.6875-9.375-14.062-25.312-23.438-30v-180c0-10.312-8.4375-18.75-18.75-18.75s-18.75 8.4375-18.75 18.75v180.94c-9.375 4.6875-19.688 20.625-24.375 30h-495.94c-4.6875-10.312-14.062-26.25-23.438-30.938v-180c0-10.312-8.4375-18.75-18.75-18.75s-18.75 8.4375-18.75 18.75v180.94c-9.375 4.6875-19.688 20.625-24.375 30h-246.56c-10.312-0.9375-18.75 7.5-18.75 17.812z"/>
  <path d="m1095.9 600c20.625 0 38.438-22.5 38.438-43.125v-299.06c0-20.625-17.812-32.812-38.438-32.812h-411.56c-20.625 0-37.5 11.25-37.5 32.812v299.06c0 20.625 16.875 43.125 37.5 43.125h131.25v28.125h-19.688c-10.312 0-18.75 8.4375-18.75 18.75s8.4375 18.75 18.75 18.75h188.44c10.312 0 18.75-8.4375 18.75-18.75s-8.4375-18.75-18.75-18.75h-18.75v-28.125zm-411.56-84.375v-253.12h411.56v253.12z"/>
 </g>
</svg>
