<?xml version="1.0" encoding="UTF-8"?>
<svg width="1200pt" height="1200pt" version="1.1" viewBox="0 0 1200 1200" xmlns="http://www.w3.org/2000/svg">
 <path d="m591.79 738.23h82.359l35.828 93.547c4.3086 11.32 2.6523 24.309-4.2266 34.652l-99.52 149.93c-8.3867 12.641-17.773 17.707-27.215 19.309-9.5078 1.5078-19.52-0.90625-27.773-6.3984-8.2656-5.4805-14.52-13.746-16.746-23.055-2.2266-9.293-1.1055-19.934 7.293-32.574l84.441-127.15c2.6523-4.1055 3.1992-9.1719 1.4531-13.691zm171.18-311.87c10.066 0.76172 20.762 2.0117 31.879 3.6797l-21.055 20.762zm-33.68-1.1719 25.762 57.852c4.3203 9.5859 16.961 12 24.441 4.5742l51.945-51.105c12.922 2.7188 26.254 5.707 40.359 9.3867 4.4414 1.1719 8.8125 1.4531 13.055 1.1719 1.4531 10.012-0.83984 19.238-7.6914 26.254l-99.039 101.39c-15.746 16.172-41.652 11.375-50.492-9.4414l-8.8945-20.973c-5.5469-13.266-24.707-12.012-28.535 1.8672l-17.988 65.215c-2.707 9.5859 4.5195 19.16 14.52 19.16h142.62c21.535 0 38.68 17.078 38.68 38.613v201.45c0 14.172-4.7344 22.922-11.668 29.105-7.0273 6.2539-16.895 9.6523-27.027 9.6523-10.066 0-20-3.3984-26.945-9.6523-7-6.1875-11.801-14.934-11.801-29.105v-147.57c0-8.332-6.7344-15.078-15.055-15.148h-197.01c-7.3594 0-16.387-5-22.84-14.441-6.5469-9.5352-9.8672-22.508-7.0938-35.359l11.668-55.414c18.465-22.359 30.707-49.867 33.973-80.281 11.586-47.48 35.266-75.48 78.668-89.078 15.824-5.0117 34.652-7.7188 56.387-8.1172zm-164.16-120.91c76.105-2.0117 178.46 19.094 320.84 99.309 11.52 6.4531 4.4414 15.895-6.4648 13.055-92.691-24.227-163.4-29.988-215.68-12.148-59.879 20.414-92.16 68.055-99.453 113.45-10.133 62.988-60.906 112.31-127.03 112.31-70.762 0-127.56-55.691-128.39-123.46-0.97266-70.559 35.68-137.77 117.28-170.99 35.969-14.59 79.648-30.004 138.89-31.523zm228.39-142.08c11.828 0.14844 23.68 2.4141 35.215 7.4258h0.066406c46.238 19.934 67.215 73.055 47.293 119.16-10.281 23.895-29.441 40.691-52.16 48.961-40-18.613-76.734-32.375-110.61-42.227-12.641-23.68-15.148-52.227-3.7461-78.547 14.996-34.641 48.676-54.984 83.945-54.773zm0.21094-30.277c-47.078-0.35938-92.094 27.148-111.88 73.055-11.586 26.668-12.426 55.199-4.8516 81.105-42.227-9.5078-79.52-12.906-112.64-12-64.172 1.6016-112.49 18.734-149.51 33.812-92.16 37.441-137.23 117.64-136.12 199.31 1.1211 84.52 71.879 153.27 158.61 153.27 31.188 0 60.359-9.0273 85.066-24.52l-3.3984 15.84c-4.5859 21.668 0.83984 42.707 11.734 58.68 6.8789 9.9883 16.105 18.332 26.879 23.188l39.094 102.57-80.148 120.69c-12.359 18.613-15.625 38.812-11.375 56.32 4.1602 17.426 15.199 31.879 29.293 41.238 14.172 9.375 31.668 14.027 49.441 11.105 17.707-2.9219 35.148-13.812 47.508-32.492l99.52-149.93c12.094-18.188 15.199-41.32 7.293-62.078l-31.734-82.84h53.879v132.36c0 21.746 8.625 39.934 21.879 51.68 13.188 11.734 30.281 17.281 47.078 17.281 16.867 0 33.879-5.5469 47.094-17.281 13.188-11.746 21.867-29.934 21.867-51.68l0.007813-201.47c-0.066406-37.852-30.973-68.895-68.812-68.961h-36.945c6.5195-3.0391 8.4648-5.6133 11.668-8.8945l94.574-96.801c17.293-17.707 17.922-40.332 13.762-61.387 8.8945-9.7188 10.348-24.16 7.3594-33.398-2.9219-9.1055-9.7188-17.078-19.16-22.441-14.719-8.2539-28.961-15.746-42.922-22.922 19.719-12.426 36.105-30.547 46.027-53.535v-0.066407c26.332-61.188-1.8672-132.49-63.188-158.89-15.285-6.5938-31.258-9.8438-46.953-9.9102z" fill-rule="evenodd"/>
</svg>
