<?xml version="1.0" encoding="UTF-8"?>
<svg width="1200pt" height="1200pt" version="1.1" viewBox="0 0 1200 1200" xmlns="http://www.w3.org/2000/svg">
 <g>
  <path d="m506.25 225h187.5v37.5h-187.5z"/>
  <path d="m506.25 300h187.5v37.5h-187.5z"/>
  <path d="m1068.8 1012.5v-150c0-8.3242-5.4922-15.656-13.5-18l-436.5-127.31v-229.69h131.25c10.367 0 18.75-8.3984 18.75-18.75v-300c0-4.9688-1.9688-9.75-5.4922-13.258l-112.5-112.5c-3.5078-3.5234-8.2695-5.4922-13.258-5.4922h-187.5c-10.367 0-18.75 8.3984-18.75 18.75v412.5c0 10.352 8.3828 18.75 18.75 18.75h131.25v229.69l-436.5 127.31c-8.0078 2.3438-13.5 9.6758-13.5 18v150c0 8.3242 5.4922 15.656 13.5 18l450 131.25c1.7266 0.50781 3.4688 0.75 5.25 0.75s3.5234-0.24219 5.25-0.75l450-131.25c8.0078-2.3438 13.5-9.6758 13.5-18zm-412.5-910.99 48.488 48.488h-48.488zm-187.5-26.512h150v93.75c0 10.352 8.3828 18.75 18.75 18.75h93.75v262.5h-262.5zm112.5 681.24v98.492l-42.992-42.992-26.512 26.512 75 75c3.6523 3.6602 8.4531 5.4961 13.254 5.4961s9.6016-1.8359 13.258-5.4922l75-75-26.512-26.512-42.996 42.992v-98.492l364.29 106.25-383.04 111.71-383.04-111.71zm-412.5 131.25 412.5 120.32v110.95l-412.5-120.32zm450 231.27v-110.95l412.5-120.32v110.95z"/>
  <path d="m506.25 150h75v37.5h-75z"/>
  <path d="m56.25 487.5h131.25c0 51.695 42.055 93.75 93.75 93.75h56.25c31.012 0 56.25 25.238 56.25 56.25v29.738l-42.992-42.992-26.512 26.512 75 75c3.6523 3.6562 8.4531 5.4922 13.254 5.4922s9.6016-1.8359 13.258-5.4922l75-75-26.512-26.512-42.996 42.992v-29.738c0-51.695-42.055-93.75-93.75-93.75h-56.25c-31.012 0-56.25-25.238-56.25-56.25h131.25c10.367 0 18.75-8.3984 18.75-18.75v-300c0-4.9688-1.9688-9.75-5.4922-13.258l-112.5-112.5c-3.5078-3.5234-8.2695-5.4922-13.258-5.4922h-187.5c-10.367 0-18.75 8.3984-18.75 18.75v412.5c0 10.352 8.3828 18.75 18.75 18.75zm206.25-385.99 48.488 48.488h-48.488zm-187.5-26.512h150v93.75c0 10.352 8.3828 18.75 18.75 18.75h93.75v262.5h-262.5z"/>
  <path d="m112.5 225h187.5v37.5h-187.5z"/>
  <path d="m112.5 300h187.5v37.5h-187.5z"/>
  <path d="m112.5 375h187.5v37.5h-187.5z"/>
  <path d="m112.5 150h75v37.5h-75z"/>
  <path d="m1162.5 468.75v-300c0-4.9688-1.9688-9.75-5.4922-13.258l-112.5-112.5c-3.5078-3.5234-8.2695-5.4922-13.258-5.4922h-187.5c-10.367 0-18.75 8.3984-18.75 18.75v412.5c0 10.352 8.3828 18.75 18.75 18.75h131.25c0 31.012-25.238 56.25-56.25 56.25h-56.25c-51.695 0-93.75 42.055-93.75 93.75v29.738l-42.992-42.992-26.512 26.512 75 75c3.6523 3.6562 8.4531 5.4922 13.254 5.4922s9.6016-1.8359 13.258-5.4922l75-75-26.512-26.512-42.996 42.992v-29.738c0-31.012 25.238-56.25 56.25-56.25h56.25c51.695 0 93.75-42.055 93.75-93.75h131.25c10.367 0 18.75-8.3984 18.75-18.75zm-112.5-367.24 48.488 48.488h-48.488zm-187.5 348.49v-375h150v93.75c0 10.352 8.3828 18.75 18.75 18.75h93.75v262.5z"/>
  <path d="m900 225h187.5v37.5h-187.5z"/>
  <path d="m900 300h187.5v37.5h-187.5z"/>
  <path d="m900 375h187.5v37.5h-187.5z"/>
  <path d="m900 150h75v37.5h-75z"/>
  <path d="m506.25 375h37.5v37.5h-37.5z"/>
  <path d="m581.25 375h37.5v37.5h-37.5z"/>
  <path d="m656.25 375h37.5v37.5h-37.5z"/>
 </g>
</svg>
