<?xml version="1.0" encoding="UTF-8"?>
<svg width="1200pt" height="1200pt" version="1.1" viewBox="0 0 1200 1200" xmlns="http://www.w3.org/2000/svg">
 <path d="m993.75 356.25h-227.7c-15.215 0-29.777 6.1641-40.371 17.082l-369.43 368.94v-29.773c-0.011719-31.176-15.523-60.305-41.383-77.719 14.465-14.055 22.629-33.363 22.633-53.531v-37.5c0-26.793-14.293-51.555-37.5-64.953-23.207-13.395-51.793-13.395-75 0-23.207 13.398-37.5 38.16-37.5 64.953v37.5c0.003906 20.168 8.168 39.477 22.633 53.531-25.859 17.414-41.371 46.543-41.383 77.719v60.602c-40.324 9.3359-75.809 33.164-99.707 66.957-23.902 33.793-34.551 75.188-29.918 116.32 4.6289 41.133 24.211 79.125 55.027 106.76 30.812 27.633 70.707 42.98 112.1 43.117h246.45c15.215 0 29.777-6.1641 40.371-17.082l395.94-395.42h104.74c44.754 0 87.676-17.777 119.32-49.426 31.648-31.648 49.426-74.57 49.426-119.32s-17.777-87.676-49.426-119.32c-31.648-31.648-74.57-49.426-119.32-49.426zm-768.75 225v-37.5c0-13.398 7.1484-25.777 18.75-32.477 11.602-6.6992 25.898-6.6992 37.5 0 11.602 6.6992 18.75 19.078 18.75 32.477v37.5c0 13.398-7.1484 25.777-18.75 32.477-11.602 6.6992-25.898 6.6992-37.5 0-11.602-6.6992-18.75-19.078-18.75-32.477zm-18.75 131.25c0-20.098 10.723-38.664 28.125-48.715 17.402-10.047 38.848-10.047 56.25 0 17.402 10.051 28.125 28.617 28.125 48.715v56.25h-112.5zm787.5-56.25h-112.5c-4.9688-0.003906-9.7383 1.9648-13.258 5.4766l-401.73 401.21c-3.5352 3.707-8.4336 5.8086-13.559 5.8125h-246.45c-46.891 0-90.219-25.016-113.66-65.625-23.449-40.609-23.449-90.641 0-131.25 23.445-40.609 66.773-65.625 113.66-65.625h131.25c4.5977 0.046875 9.0312-1.6992 12.355-4.875 0.26172-0.24219 0.63672-0.33594 0.89844-0.60156l401.74-401.25c3.5352-3.707 8.4336-5.8086 13.559-5.8125h227.7c46.891 0 90.219 25.02 113.66 65.625 23.449 40.609 23.449 90.645 0 131.25-23.445 40.609-66.773 65.625-113.66 65.625zm-281.25 0v93.75h-37.5v-48.488l-136.74 136.74-26.512-26.512 136.74-136.74h-48.488v-37.5h93.75c4.9727 0 9.7422 1.9766 13.258 5.4922 3.5156 3.5156 5.4922 8.2852 5.4922 13.258zm75-562.5c-11.566 0.011719-22.477 5.3633-29.57 14.496-7.0938 9.1328-9.5781 21.027-6.7305 32.238 2.8477 11.207 10.707 20.477 21.301 25.117l15.168 136.46c0.50781 4.5781 2.6836 8.8086 6.1094 11.887 3.4258 3.0781 7.8672 4.7891 12.473 4.8008h262.5c4.6172 0 9.0703-1.7031 12.508-4.7812 3.4414-3.0781 5.6211-7.3164 6.1289-11.906l15.113-136.46c8.3008-3.625 15.012-10.133 18.891-18.316 3.8789-8.1875 4.6602-17.5 2.207-26.219-2.457-8.7188-7.9844-16.258-15.566-21.215-7.5781-4.9609-16.699-7.0078-25.672-5.7656-8.9727 1.2422-17.191 5.6875-23.141 12.52s-9.2227 15.586-9.2188 24.645c0 3.2852 0.42188 6.5547 1.2578 9.7305l-53.758 53.793-27.281-45.449c3.1406-5.5039 4.7891-11.734 4.7812-18.074 0-13.398-7.1484-25.777-18.75-32.477-11.602-6.6992-25.898-6.6992-37.5 0-11.602 6.6992-18.75 19.078-18.75 32.477-0.007812 6.3398 1.6406 12.57 4.7812 18.074l-27.281 45.449-53.758-53.793c0.83594-3.1758 1.2578-6.4453 1.2578-9.7305 0-9.9453-3.9492-19.484-10.984-26.516-7.0312-7.0352-16.57-10.984-26.516-10.984zm80.492 144.51c4.082 4.0781 9.8164 6.0508 15.543 5.3477 5.7266-0.70312 10.809-4.0039 13.785-8.9492l40.18-66.977 40.18 66.977c2.9766 4.9453 8.0586 8.2461 13.785 8.9492 5.7266 0.70312 11.461-1.2695 15.543-5.3477l55.949-55.949-10.988 98.941h-228.84l-10.988-98.945z"/>
</svg>
