<?xml version="1.0" encoding="UTF-8"?>
<svg width="1200pt" height="1200pt" version="1.1" viewBox="0 0 1200 1200" xmlns="http://www.w3.org/2000/svg">
 <g>
  <path d="m633.23 282.6c-12.938-24.711-53.512-24.711-66.414 0l-412.5 787.5c-6.1133 11.625-5.6641 25.574 1.125 36.789 6.7891 11.211 18.938 18.109 32.062 18.109h825c13.125 0 25.312-6.8633 32.062-18.074 6.8242-11.211 7.1992-25.164 1.125-36.789zm-383.74 767.4 350.51-669.19 350.55 669.19z"/>
  <path d="m534.38 537.68c-7.125 8.0625-10.426 18.789-9.1133 29.477l37.5 300c2.3633 18.785 18.34 32.848 37.238 32.848s34.875-14.062 37.199-32.852l37.5-300c1.3516-10.688-1.9883-21.414-9.0742-29.477-7.125-8.0586-17.363-12.672-28.125-12.672h-75c-10.762 0-21 4.6133-28.125 12.676z"/>
  <path d="m601.12 937.5h-0.375c-20.699 0-37.312 16.801-37.312 37.5s16.988 37.5 37.688 37.5c20.738 0 37.5-16.801 37.5-37.5s-16.762-37.5-37.5-37.5z"/>
  <path d="m1114 573.49-75-75c-14.664-14.664-38.363-14.664-53.023 0-14.664 14.664-14.664 38.363 0 53.023l10.988 10.988h-76.012l-289.02-469.65c-13.648-22.199-50.211-22.199-63.863 0l-289.05 469.65h-166.54c-20.699 0-37.5 16.801-37.5 37.5s16.801 37.5 37.5 37.5h187.5c13.012 0 25.086-6.75 31.949-17.852l268.05-435.6 268.05 435.6c6.8242 11.098 18.898 17.848 31.949 17.848h96.977l-10.988 10.988c-14.664 14.664-14.664 38.363 0 53.023 7.3125 7.3125 16.91 10.988 26.512 10.988s19.199-3.6758 26.512-10.988l75-75c14.664-14.66 14.664-38.363 0-53.023z"/>
 </g>
</svg>
