<?xml version="1.0" encoding="UTF-8"?>
<svg id="artwork_lightmode" data-name="artwork lightmode" xmlns="http://www.w3.org/2000/svg" xmlns:xlink="http://www.w3.org/1999/xlink" viewBox="0 0 64.08 64.08">
  <defs>
    <style>
      .cls-1 {
        fill: #0e4377;
      }

      .cls-1, .cls-2, .cls-3 {
        stroke-width: 0px;
      }

      .cls-2 {
        fill: #fff;
      }

      .cls-3 {
        fill: url(#radial-gradient);
      }
    </style>
    <radialGradient id="radial-gradient" cx="32.04" cy="32.04" fx="32.04" fy="32.04" r="32.04" gradientUnits="userSpaceOnUse">
      <stop offset="0" stop-color="#3381cc"/>
      <stop offset=".51" stop-color="#317fcb"/>
      <stop offset=".7" stop-color="#2a7bc9"/>
      <stop offset=".83" stop-color="#1e74c6"/>
      <stop offset=".94" stop-color="#0d6ac2"/>
      <stop offset="1" stop-color="#0062bf"/>
    </radialGradient>
  </defs>
  <path class="cls-3" d="m32.04,0C14.34,0,0,14.34,0,32.04s14.34,32.04,32.04,32.04,32.04-14.34,32.04-32.04S49.74,0,32.04,0Z"/>
  <g>
    <g>
      <path class="cls-2" d="m39.69,63.07h0c-4.28-16.65,7.85-26.93,9.88-29.25,2.25-2.58,3.03-6.49,2.97-6.95h0s0-.05,0-.05c.36-2.27-2.17-6.92-2.17-6.92,1.42-2.4-.59-5.23-2.67-5.12-2.09.11-2.57,1.82-2.57,1.82,0,0-3.18,1.42-6.82,4.04-3.63,2.61-6.96,2.74-10.42,1.46-3.47-1.28-7.52,2.56-7.52,2.56l-5.32,5.69c-.61-.36-1.26-.53-1.92-.49-3.05.21-5.2,4.99-4.81,10.69.1,1.42.34,2.7.7,3.81-.03-.05-.06-.09-.09-.14,1.06,3.82,3.41,4.44,5.76,4.28,3.05-.21,4.87-2.92,4.48-8.61-.04-.54.07-1.14,0-1.66h0s0-.03,0-.03c.94,1.64,1.67,3.69,2.22,5.91,1.2,4.86-1.6,11.51-5.24,15.75,4.69,2.69,10.12,4.24,15.92,4.24,2.58,0,5.09-.31,7.5-.89.05-.04.1-.07.16-.11,0,0,0,0,0,0Z"/>
      <path class="cls-2" d="m39.69,63.07s0,0,0,0c-.05.04-.1.07-.16.11l.16-.12Z"/>
    </g>
    <path class="cls-1" d="m17.48,33.09c.25.45.48.93.68,1.45-.29-.51-.56-1-.68-1.45Zm1.83,6.71c-.04-.54-.1-1.07-.17-1.58-.14,5.08-3.05,9.04-5.86,9.23-1.65.11-3.23-1.15-4.38-3.23,1.06,3.82,3.25,6.43,5.6,6.27,3.05-.21,5.2-4.99,4.81-10.69Zm9.65-11.36l2.03-1.9s.54-.44.21-.82c-1.38-1.61-2.78-1.31-2.78-1.31-.57,1.2.53,4.03.53,4.03Zm3.6,12.97l4.86.26s-1.88,2.66-3.85,8.35l3.25-.71c-.68,6.56,2.86,13.76,2.86,13.76-3.2-15.43,9.17-26.59,11.2-28.91,2.38-2.73,1.64-7.34,1.64-7.34,0,0-3.73,8.47-19.95,14.59Z"/>
  </g>
</svg>