<?xml version="1.0" encoding="UTF-8"?>
<svg id="dark_mode" data-name="dark mode" xmlns="http://www.w3.org/2000/svg" viewBox="0 0 152.4 40.4">
  <defs>
    <style>
      .cls-1 {
        fill: #bcbcbc;
        stroke-width: 0px;
      }
    </style>
  </defs>
  <path class="cls-1" d="m0,1.36h6.99v12.57h12.89V1.36h6.99v31.78h-6.99v-12.76H6.99v12.76H0V1.36Z" />
  <path class="cls-1"
    d="m31.46,21.11v-.09c0-6.99,5.63-12.67,13.21-12.67s13.12,5.58,13.12,12.57v.09c0,6.99-5.63,12.67-13.21,12.67s-13.12-5.58-13.12-12.57Zm19.52,0v-.09c0-3.59-2.59-6.72-6.4-6.72s-6.31,3.04-6.31,6.63v.09c0,3.59,2.59,6.72,6.4,6.72s6.31-3.04,6.31-6.63Z" />
  <path class="cls-1"
    d="m58.52,8.81h6.99l3.9,14.75,4.58-14.84h5.95l4.63,14.89,4-14.8h6.85l-7.58,24.51h-6.22l-4.67-14.94-4.77,14.94h-6.17l-7.49-24.51Z" />
  <path class="cls-1" d="m98.79,0h6.9v33.14h-6.9V0Z" />
  <path class="cls-1"
    d="m109.87,21.11v-.09c0-6.95,4.95-12.67,12.03-12.67,8.13,0,11.85,6.31,11.85,13.21,0,.54-.04,1.18-.09,1.82h-16.93c.68,3.13,2.86,4.77,5.95,4.77,2.32,0,4-.73,5.9-2.5l3.95,3.5c-2.27,2.81-5.54,4.54-9.94,4.54-7.31,0-12.71-5.13-12.71-12.57Zm17.16-2.04c-.41-3.09-2.22-5.18-5.13-5.18s-4.72,2.04-5.27,5.18h10.4Z" />
  <path class="cls-1"
    d="m137.74,8.81h6.9v4.9c1.41-3.36,3.68-5.54,7.76-5.36v7.22h-.36c-4.58,0-7.4,2.77-7.4,8.58v8.99h-6.9V8.81Z" />
</svg>
