<?xml version="1.0" encoding="UTF-8"?>
<svg id="dark_mode" data-name="dark mode" xmlns="http://www.w3.org/2000/svg" xmlns:xlink="http://www.w3.org/1999/xlink" viewBox="0 0 64.08 63.1">
  <defs>
    <style>
      .cls-1 {
        fill: #3e506d;
      }

      .cls-1, .cls-2 {
        stroke-width: 0px;
      }

      .cls-2 {
        fill: url(#radial-gradient);
      }
    </style>
    <radialGradient id="radial-gradient" cx="32.04" cy="31.55" fx="32.04" fy="31.55" r="31.8" gradientUnits="userSpaceOnUse">
      <stop offset="0" stop-color="#b1c6e9"/>
      <stop offset="1" stop-color="#7da1db"/>
    </radialGradient>
  </defs>
  <path class="cls-2" d="m32.04,0C14.34,0,0,14.34,0,32.04c0,11.66,6.23,21.87,15.55,27.47,3.63-4.48,6.33-11.15,5.11-16.09-.58-2.34-1.35-4.51-2.34-6.24v.03s0,0,0,0c.08.54-.03,1.18,0,1.75.41,6.01-1.52,8.86-4.73,9.08-2.48.17-4.96-.48-6.08-4.51.03.05.06.1.09.15-.38-1.17-.64-2.52-.74-4.01-.41-6.01,1.86-11.05,5.08-11.27.69-.05,1.38.14,2.02.51l5.62-6s4.28-4.06,7.94-2.7c3.66,1.35,7.16,1.22,10.99-1.54,3.83-2.75,7.19-4.26,7.19-4.26,0,0,.52-1.81,2.71-1.92,2.2-.11,4.32,2.87,2.82,5.4,0,0,2.67,4.91,2.29,7.3,0,0,0,.02,0,.05h0c.07.49-.76,4.61-3.13,7.33-2.13,2.44-14.77,13.16-10.49,30.52,13.89-3.51,24.16-16.08,24.16-31.06C64.08,14.34,49.73,0,32.04,0Z"/>
  <path class="cls-1" d="m16.58,31.81c.26.47.5.98.72,1.53-.3-.54-.59-1.05-.72-1.53Zm1.93,7.07c-.04-.57-.1-1.13-.18-1.67-.14,5.35-3.22,9.53-6.17,9.73-1.74.12-3.4-1.21-4.62-3.41,1.12,4.03,3.43,6.79,5.91,6.62,3.21-.22,5.48-5.27,5.08-11.27Zm10.18-11.98l2.14-2s.57-.46.22-.87c-1.45-1.7-2.93-1.39-2.93-1.39-.6,1.26.56,4.25.56,4.25Zm3.8,13.68l5.12.28s-1.99,2.81-4.06,8.8l3.43-.75c-.72,6.92,2.94,14.18,2.94,14.18-3.37-16.27,9.75-27.71,11.89-30.16,2.51-2.88,1.73-7.74,1.73-7.74,0,0-3.94,8.93-21.04,15.39Z"/>
</svg>