<?xml version="1.0" encoding="UTF-8"?>
<svg id="artwork_lightmode" data-name="artwork lightmode" xmlns="http://www.w3.org/2000/svg" xmlns:xlink="http://www.w3.org/1999/xlink" viewBox="0 0 70.92 72.11">
  <defs>
    <style>
      .cls-1 {
        fill: #4d4d4d;
      }

      .cls-1, .cls-2, .cls-3, .cls-4 {
        stroke-width: 0px;
      }

      .cls-2 {
        fill: #0e4377;
      }

      .cls-3 {
        fill: #0062bf;
      }

      .cls-4 {
        fill: url(#radial-gradient);
      }
    </style>
    <radialGradient id="radial-gradient" cx="38.88" cy="31.59" fx="38.88" fy="31.59" r="31.82" gradientUnits="userSpaceOnUse">
      <stop offset="0" stop-color="#1976d2"/>
      <stop offset=".51" stop-color="#1874d0"/>
      <stop offset=".7" stop-color="#1871c9"/>
      <stop offset=".83" stop-color="#166abd"/>
      <stop offset=".93" stop-color="#1461ac"/>
      <stop offset="1" stop-color="#13599e"/>
    </radialGradient>
  </defs>
  <g>
    <path class="cls-4" d="m38.88,0C21.18,0,6.84,14.34,6.84,32.04c0,11.9,6.49,22.28,16.12,27.8,3.64-4.24,6.45-10.88,5.25-15.75-.55-2.22-1.28-4.28-2.22-5.91v.03s0,0,0,0c.08.52.14,1.04.17,1.58.39,5.69-1.77,10.48-4.81,10.69-2.35.16-4.54-2.45-5.6-6.27.03.05.06.09.09.14-.36-1.11-.61-2.39-.7-3.81-.39-5.69,1.77-10.48,4.81-10.69.66-.04,1.31.13,1.92.49l5.32-5.69s4.06-3.85,7.52-2.56c3.47,1.28,6.79,1.15,10.42-1.46,3.63-2.61,6.82-4.04,6.82-4.04,0,0,.49-1.71,2.57-1.82,2.09-.11,4.1,2.72,2.67,5.12,0,0,2.54,4.65,2.17,6.92,0,0,0,.02,0,.05h0c.07.46.6,4.71-1.64,7.29-2.03,2.33-14.4,13.48-11.2,28.91h0c-.05.04-.11.08-.16.12,1.51-.36,2.98-.83,4.4-1.4.4-2.23,1.51-4.36,3.33-5.98,1.91-1.7,4.38-2.64,6.94-2.64h0c.59,0,1.18.06,1.76.16,5.04-5.66,8.11-13.12,8.11-21.29C70.92,14.34,56.57,0,38.88,0Z"/>
    <path class="cls-3" d="m67.39,57.98c-1.61-1.81-3.92-2.85-6.35-2.85-2.08,0-4.08.76-5.64,2.14-2.68,2.38-3.49,6.1-2.32,9.28-6.51,2.61-13.64,3.32-20.69,1.98-9.74-1.86-18.17-7.4-23.74-15.59C2.63,44.05.74,33,3.48,22.61c.16-.6-.2-1.22-.8-1.37-.6-.16-1.22.2-1.37.8-2.9,11.02-.9,22.74,5.5,32.16,5.91,8.7,14.85,14.57,25.17,16.54,2.49.47,4.98.71,7.46.71,5.06,0,10.03-.99,14.7-2.9.17.24.36.48.56.71,1.61,1.81,3.92,2.85,6.35,2.85,2.08,0,4.08-.76,5.63-2.14,1.69-1.51,2.7-3.58,2.84-5.84.13-2.26-.62-4.44-2.13-6.14Zm-1.3,9.41c-.25.34-.54.65-.86.94-.28.25-.58.47-.89.66-.03.02-.06.04-.08.05-.3.18-.61.32-.92.44-.05.02-.09.04-.14.05-.31.11-.63.2-.95.26-.05.01-.11.02-.16.03-.32.05-.64.08-.97.09-.08,0-.16,0-.24,0-.12,0-.23,0-.35-.02-.09,0-.19-.02-.28-.03-.12-.01-.23-.03-.35-.05-.09-.02-.18-.04-.28-.06-.11-.03-.23-.06-.34-.09-.09-.03-.18-.05-.27-.08-.11-.04-.22-.08-.33-.13-.09-.03-.17-.07-.26-.11-.11-.05-.22-.11-.33-.17-.08-.04-.16-.08-.24-.13-.11-.07-.22-.14-.33-.21-.07-.05-.14-.09-.21-.14-.12-.09-.23-.18-.34-.28-.06-.05-.11-.09-.17-.14-.16-.15-.32-.31-.47-.48-1.3-1.46-1.79-3.36-1.51-5.16.03-.2.07-.4.12-.59.3-1.18.94-2.28,1.92-3.14,0,0,0,0,0,0,.28-.25.58-.47.89-.66.03-.02.06-.04.09-.06.3-.18.61-.32.92-.44.05-.02.09-.04.14-.05.31-.11.63-.2.95-.26.05-.01.11-.02.16-.03.32-.05.64-.08.97-.09.08,0,.16,0,.24,0,.12,0,.23,0,.35.02.09,0,.19.02.28.03.12.01.23.03.35.05.09.02.18.04.28.06.11.03.23.06.34.09.09.03.18.05.27.08.11.04.22.08.33.13.09.03.17.07.26.11.11.05.22.11.33.16.08.04.16.08.24.13.11.07.22.14.33.21.07.05.14.09.21.14.12.09.23.18.34.28.06.05.11.09.17.14.16.15.32.31.47.48,1.01,1.14,1.53,2.54,1.59,3.95.05,1.41-.37,2.83-1.25,4Z"/>
    <g>
      <path class="cls-1" d="m58.76,64.46c-.63-.63-.95-1.46-.95-2.29s.32-1.65.95-2.29c.63-.63,1.46-.95,2.29-.95s1.65.32,2.29.95c.63.63.95,1.46.95,2.29s-.32,1.65-.95,2.29l-1.07,1.07h-.34v-3.94c-.07-.03-.14-.08-.19-.13h0c-.12-.12-.2-.3-.2-.48s.08-.36.2-.48h0c.12-.12.29-.2.48-.2s.36.08.48.2h0c.12.12.2.3.2.48s-.08.36-.2.48c-.06.06-.12.1-.19.13v2.87l.41-.41c.52-.52.78-1.19.78-1.87s-.26-1.35-.78-1.87c-.52-.52-1.19-.78-1.87-.78s-1.35.26-1.87.78c-.52.52-.78,1.19-.78,1.87s.26,1.35.78,1.87l.41.41v-.58c-.07-.03-.14-.08-.19-.13h0c-.12-.12-.2-.3-.2-.48s.08-.36.2-.48h0c.12-.12.29-.2.48-.2s.36.08.48.2h0c.12.12.2.3.2.48s-.08.36-.2.48c-.06.06-.12.1-.19.13v1.66h-.34l-1.07-1.07h0Zm3.61-3.65h0s-.09-.06-.15-.06-.11.02-.15.06c-.04.04-.06.09-.06.15s.02.11.06.15h0s.09.06.15.06.11-.02.15-.06c.04-.04.06-.09.06-.15s-.02-.11-.06-.15h0Zm-2.34,2.29h0s-.09-.06-.15-.06-.11.02-.15.06c-.04.04-.06.09-.06.15s.02.11.06.15h0s.09.06.15.06.11-.02.15-.06c.04-.04.06-.09.06-.15s-.02-.11-.06-.15h0Zm1.02-1.68c.19,0,.36.08.48.2h0c.12.12.2.3.2.48s-.08.36-.2.48c-.06.06-.12.1-.19.13v2.8h-.59v-2.8c-.07-.03-.14-.08-.19-.13h0c-.12-.12-.2-.3-.2-.48s.08-.36.2-.48h0c.12-.12.29-.2.48-.2Zm.15.53h0s-.09-.06-.15-.06-.11.02-.15.06c-.04.04-.06.09-.06.15s.02.11.06.15h0s.09.06.15.06.11-.02.15-.06c.04-.04.06-.09.06-.15s-.02-.11-.06-.15h0Z"/>
      <path class="cls-1" d="m59.79,65.91h2.52c.17,0,.3.13.3.3h0c0,.16-.14.3-.3.3h-2.52c-.17,0-.3-.13-.3-.3h0c0-.16.14-.3.3-.3Z"/>
      <path class="cls-1" d="m59.96,66.8h2.17c.14,0,.26.13.26.3h0c0,.16-.12.3-.26.3h-2.17c-.14,0-.26-.13-.26-.3h0c0-.16.12-.3.26-.3Z"/>
      <path class="cls-1" d="m60.35,67.71h1.4c-.06.34-.35.59-.7.59s-.64-.25-.7-.59Z"/>
    </g>
  </g>
  <path class="cls-2" d="m24.33,33.09c.25.45.48.93.68,1.45-.29-.51-.56-1-.68-1.45Zm1.83,6.71c-.04-.54-.1-1.07-.17-1.58-.14,5.08-3.05,9.04-5.86,9.23-1.65.11-3.23-1.15-4.38-3.23,1.06,3.82,3.25,6.43,5.6,6.27,3.05-.21,5.2-4.99,4.81-10.69Zm9.65-11.36l2.03-1.9s.54-.44.21-.82c-1.38-1.61-2.78-1.31-2.78-1.31-.57,1.2.53,4.03.53,4.03Zm3.6,12.97l4.86.26s-1.88,2.66-3.85,8.35l3.25-.71c-.68,6.56,2.86,13.76,2.86,13.76-3.2-15.43,9.17-26.59,11.2-28.91,2.38-2.73,1.64-7.34,1.64-7.34,0,0-3.73,8.47-19.95,14.59Z"/>
</svg>